M48
; DRILL file {KiCad 9.0.4} date 2025-09-17T14:07:03+0530
; FORMAT={-:-/ absolute / metric / decimal}
; #@! TF.CreationDate,2025-09-17T14:07:03+05:30
; #@! TF.GenerationSoftware,Kicad,Pcbnew,9.0.4
; #@! TF.FileFunction,Plated,1,2,PTH
FMAT,2
METRIC
; #@! TA.AperFunction,Plated,PTH,ComponentDrill
T1C0.700
; #@! TA.AperFunction,Plated,PTH,ComponentDrill
T2C1.000
; #@! TA.AperFunction,Plated,PTH,ComponentDrill
T3C1.300
%
G90
G05
T2
X117.87Y-35.897
X117.87Y-53.167
X117.87Y-63.73
X117.87Y-81.0
X117.87Y-92.897
X117.87Y-110.167
X117.87Y-120.73
X117.87Y-138.0
X157.5Y-35.897
X157.5Y-53.167
X157.5Y-63.73
X157.5Y-81.0
X157.5Y-92.897
X157.5Y-110.167
X157.5Y-120.73
X157.5Y-138.0
T3
X65.828Y-54.455
X65.828Y-59.535
X65.828Y-78.455
X65.828Y-83.535
X65.828Y-102.455
X65.828Y-107.535
X65.828Y-126.455
X65.828Y-131.535
X91.965Y-56.5
X94.5Y-75.0
X94.5Y-85.0
X97.045Y-56.5
T1
G00X79.9Y-145.1
M15
G01X79.9Y-146.9
M16
G05
G00X91.6Y-145.1
M15
G01X91.6Y-146.9
M16
G05
G00X217.725Y-47.15
M15
G01X219.525Y-47.15
M16
G05
G00X217.725Y-58.85
M15
G01X219.525Y-58.85
M16
G05
G00X217.725Y-71.15
M15
G01X219.525Y-71.15
M16
G05
G00X217.725Y-82.85
M15
G01X219.525Y-82.85
M16
G05
G00X217.725Y-95.15
M15
G01X219.525Y-95.15
M16
G05
G00X217.725Y-106.85
M15
G01X219.525Y-106.85
M16
G05
G00X217.725Y-119.15
M15
G01X219.525Y-119.15
M16
G05
G00X217.725Y-130.85
M15
G01X219.525Y-130.85
M16
G05
M30
