%TF.GenerationSoftware,KiCad,Pcbnew,9.0.4*%
%TF.CreationDate,2025-09-17T14:06:31+05:30*%
%TF.ProjectId,Robot_power_board,526f626f-745f-4706-9f77-65725f626f61,rev?*%
%TF.SameCoordinates,Original*%
%TF.FileFunction,Legend,Top*%
%TF.FilePolarity,Positive*%
%FSLAX46Y46*%
G04 Gerber Fmt 4.6, Leading zero omitted, Abs format (unit mm)*
G04 Created by KiCad (PCBNEW 9.0.4) date 2025-09-17 14:06:31*
%MOMM*%
%LPD*%
G01*
G04 APERTURE LIST*
%ADD10C,0.100000*%
%ADD11C,0.200000*%
%ADD12C,0.125000*%
%ADD13C,0.150000*%
%ADD14C,0.120000*%
G04 APERTURE END LIST*
D10*
X153827693Y-65420038D02*
X153732455Y-65372419D01*
X153732455Y-65372419D02*
X153589598Y-65372419D01*
X153589598Y-65372419D02*
X153446741Y-65420038D01*
X153446741Y-65420038D02*
X153351503Y-65515276D01*
X153351503Y-65515276D02*
X153303884Y-65610514D01*
X153303884Y-65610514D02*
X153256265Y-65800990D01*
X153256265Y-65800990D02*
X153256265Y-65943847D01*
X153256265Y-65943847D02*
X153303884Y-66134323D01*
X153303884Y-66134323D02*
X153351503Y-66229561D01*
X153351503Y-66229561D02*
X153446741Y-66324800D01*
X153446741Y-66324800D02*
X153589598Y-66372419D01*
X153589598Y-66372419D02*
X153684836Y-66372419D01*
X153684836Y-66372419D02*
X153827693Y-66324800D01*
X153827693Y-66324800D02*
X153875312Y-66277180D01*
X153875312Y-66277180D02*
X153875312Y-65943847D01*
X153875312Y-65943847D02*
X153684836Y-65943847D01*
X154303884Y-66372419D02*
X154303884Y-65372419D01*
X154303884Y-65372419D02*
X154875312Y-66372419D01*
X154875312Y-66372419D02*
X154875312Y-65372419D01*
X155351503Y-66372419D02*
X155351503Y-65372419D01*
X155351503Y-65372419D02*
X155589598Y-65372419D01*
X155589598Y-65372419D02*
X155732455Y-65420038D01*
X155732455Y-65420038D02*
X155827693Y-65515276D01*
X155827693Y-65515276D02*
X155875312Y-65610514D01*
X155875312Y-65610514D02*
X155922931Y-65800990D01*
X155922931Y-65800990D02*
X155922931Y-65943847D01*
X155922931Y-65943847D02*
X155875312Y-66134323D01*
X155875312Y-66134323D02*
X155827693Y-66229561D01*
X155827693Y-66229561D02*
X155732455Y-66324800D01*
X155732455Y-66324800D02*
X155589598Y-66372419D01*
X155589598Y-66372419D02*
X155351503Y-66372419D01*
X150661027Y-109372419D02*
X150994360Y-110372419D01*
X150994360Y-110372419D02*
X151327693Y-109372419D01*
X151851503Y-109372419D02*
X152041979Y-109372419D01*
X152041979Y-109372419D02*
X152137217Y-109420038D01*
X152137217Y-109420038D02*
X152232455Y-109515276D01*
X152232455Y-109515276D02*
X152280074Y-109705752D01*
X152280074Y-109705752D02*
X152280074Y-110039085D01*
X152280074Y-110039085D02*
X152232455Y-110229561D01*
X152232455Y-110229561D02*
X152137217Y-110324800D01*
X152137217Y-110324800D02*
X152041979Y-110372419D01*
X152041979Y-110372419D02*
X151851503Y-110372419D01*
X151851503Y-110372419D02*
X151756265Y-110324800D01*
X151756265Y-110324800D02*
X151661027Y-110229561D01*
X151661027Y-110229561D02*
X151613408Y-110039085D01*
X151613408Y-110039085D02*
X151613408Y-109705752D01*
X151613408Y-109705752D02*
X151661027Y-109515276D01*
X151661027Y-109515276D02*
X151756265Y-109420038D01*
X151756265Y-109420038D02*
X151851503Y-109372419D01*
X152708646Y-109372419D02*
X152708646Y-110181942D01*
X152708646Y-110181942D02*
X152756265Y-110277180D01*
X152756265Y-110277180D02*
X152803884Y-110324800D01*
X152803884Y-110324800D02*
X152899122Y-110372419D01*
X152899122Y-110372419D02*
X153089598Y-110372419D01*
X153089598Y-110372419D02*
X153184836Y-110324800D01*
X153184836Y-110324800D02*
X153232455Y-110277180D01*
X153232455Y-110277180D02*
X153280074Y-110181942D01*
X153280074Y-110181942D02*
X153280074Y-109372419D01*
X153613408Y-109372419D02*
X154184836Y-109372419D01*
X153899122Y-110372419D02*
X153899122Y-109372419D01*
X154518170Y-109991466D02*
X155280075Y-109991466D01*
X154899122Y-110372419D02*
X154899122Y-109610514D01*
X153327693Y-121920038D02*
X153232455Y-121872419D01*
X153232455Y-121872419D02*
X153089598Y-121872419D01*
X153089598Y-121872419D02*
X152946741Y-121920038D01*
X152946741Y-121920038D02*
X152851503Y-122015276D01*
X152851503Y-122015276D02*
X152803884Y-122110514D01*
X152803884Y-122110514D02*
X152756265Y-122300990D01*
X152756265Y-122300990D02*
X152756265Y-122443847D01*
X152756265Y-122443847D02*
X152803884Y-122634323D01*
X152803884Y-122634323D02*
X152851503Y-122729561D01*
X152851503Y-122729561D02*
X152946741Y-122824800D01*
X152946741Y-122824800D02*
X153089598Y-122872419D01*
X153089598Y-122872419D02*
X153184836Y-122872419D01*
X153184836Y-122872419D02*
X153327693Y-122824800D01*
X153327693Y-122824800D02*
X153375312Y-122777180D01*
X153375312Y-122777180D02*
X153375312Y-122443847D01*
X153375312Y-122443847D02*
X153184836Y-122443847D01*
X153803884Y-122872419D02*
X153803884Y-121872419D01*
X153803884Y-121872419D02*
X154375312Y-122872419D01*
X154375312Y-122872419D02*
X154375312Y-121872419D01*
X154851503Y-122872419D02*
X154851503Y-121872419D01*
X154851503Y-121872419D02*
X155089598Y-121872419D01*
X155089598Y-121872419D02*
X155232455Y-121920038D01*
X155232455Y-121920038D02*
X155327693Y-122015276D01*
X155327693Y-122015276D02*
X155375312Y-122110514D01*
X155375312Y-122110514D02*
X155422931Y-122300990D01*
X155422931Y-122300990D02*
X155422931Y-122443847D01*
X155422931Y-122443847D02*
X155375312Y-122634323D01*
X155375312Y-122634323D02*
X155327693Y-122729561D01*
X155327693Y-122729561D02*
X155232455Y-122824800D01*
X155232455Y-122824800D02*
X155089598Y-122872419D01*
X155089598Y-122872419D02*
X154851503Y-122872419D01*
X153327693Y-35420038D02*
X153232455Y-35372419D01*
X153232455Y-35372419D02*
X153089598Y-35372419D01*
X153089598Y-35372419D02*
X152946741Y-35420038D01*
X152946741Y-35420038D02*
X152851503Y-35515276D01*
X152851503Y-35515276D02*
X152803884Y-35610514D01*
X152803884Y-35610514D02*
X152756265Y-35800990D01*
X152756265Y-35800990D02*
X152756265Y-35943847D01*
X152756265Y-35943847D02*
X152803884Y-36134323D01*
X152803884Y-36134323D02*
X152851503Y-36229561D01*
X152851503Y-36229561D02*
X152946741Y-36324800D01*
X152946741Y-36324800D02*
X153089598Y-36372419D01*
X153089598Y-36372419D02*
X153184836Y-36372419D01*
X153184836Y-36372419D02*
X153327693Y-36324800D01*
X153327693Y-36324800D02*
X153375312Y-36277180D01*
X153375312Y-36277180D02*
X153375312Y-35943847D01*
X153375312Y-35943847D02*
X153184836Y-35943847D01*
X153803884Y-36372419D02*
X153803884Y-35372419D01*
X153803884Y-35372419D02*
X154375312Y-36372419D01*
X154375312Y-36372419D02*
X154375312Y-35372419D01*
X154851503Y-36372419D02*
X154851503Y-35372419D01*
X154851503Y-35372419D02*
X155089598Y-35372419D01*
X155089598Y-35372419D02*
X155232455Y-35420038D01*
X155232455Y-35420038D02*
X155327693Y-35515276D01*
X155327693Y-35515276D02*
X155375312Y-35610514D01*
X155375312Y-35610514D02*
X155422931Y-35800990D01*
X155422931Y-35800990D02*
X155422931Y-35943847D01*
X155422931Y-35943847D02*
X155375312Y-36134323D01*
X155375312Y-36134323D02*
X155327693Y-36229561D01*
X155327693Y-36229561D02*
X155232455Y-36324800D01*
X155232455Y-36324800D02*
X155089598Y-36372419D01*
X155089598Y-36372419D02*
X154851503Y-36372419D01*
X216780074Y-43872419D02*
X216303884Y-43872419D01*
X216303884Y-43872419D02*
X216256265Y-44348609D01*
X216256265Y-44348609D02*
X216303884Y-44300990D01*
X216303884Y-44300990D02*
X216399122Y-44253371D01*
X216399122Y-44253371D02*
X216637217Y-44253371D01*
X216637217Y-44253371D02*
X216732455Y-44300990D01*
X216732455Y-44300990D02*
X216780074Y-44348609D01*
X216780074Y-44348609D02*
X216827693Y-44443847D01*
X216827693Y-44443847D02*
X216827693Y-44681942D01*
X216827693Y-44681942D02*
X216780074Y-44777180D01*
X216780074Y-44777180D02*
X216732455Y-44824800D01*
X216732455Y-44824800D02*
X216637217Y-44872419D01*
X216637217Y-44872419D02*
X216399122Y-44872419D01*
X216399122Y-44872419D02*
X216303884Y-44824800D01*
X216303884Y-44824800D02*
X216256265Y-44777180D01*
X217113408Y-43872419D02*
X217446741Y-44872419D01*
X217446741Y-44872419D02*
X217780074Y-43872419D01*
X218875313Y-44872419D02*
X218875313Y-43872419D01*
X218875313Y-43872419D02*
X219256265Y-43872419D01*
X219256265Y-43872419D02*
X219351503Y-43920038D01*
X219351503Y-43920038D02*
X219399122Y-43967657D01*
X219399122Y-43967657D02*
X219446741Y-44062895D01*
X219446741Y-44062895D02*
X219446741Y-44205752D01*
X219446741Y-44205752D02*
X219399122Y-44300990D01*
X219399122Y-44300990D02*
X219351503Y-44348609D01*
X219351503Y-44348609D02*
X219256265Y-44396228D01*
X219256265Y-44396228D02*
X218875313Y-44396228D01*
X219875313Y-44872419D02*
X219875313Y-43872419D01*
X119827693Y-65420038D02*
X119732455Y-65372419D01*
X119732455Y-65372419D02*
X119589598Y-65372419D01*
X119589598Y-65372419D02*
X119446741Y-65420038D01*
X119446741Y-65420038D02*
X119351503Y-65515276D01*
X119351503Y-65515276D02*
X119303884Y-65610514D01*
X119303884Y-65610514D02*
X119256265Y-65800990D01*
X119256265Y-65800990D02*
X119256265Y-65943847D01*
X119256265Y-65943847D02*
X119303884Y-66134323D01*
X119303884Y-66134323D02*
X119351503Y-66229561D01*
X119351503Y-66229561D02*
X119446741Y-66324800D01*
X119446741Y-66324800D02*
X119589598Y-66372419D01*
X119589598Y-66372419D02*
X119684836Y-66372419D01*
X119684836Y-66372419D02*
X119827693Y-66324800D01*
X119827693Y-66324800D02*
X119875312Y-66277180D01*
X119875312Y-66277180D02*
X119875312Y-65943847D01*
X119875312Y-65943847D02*
X119684836Y-65943847D01*
X120303884Y-66372419D02*
X120303884Y-65372419D01*
X120303884Y-65372419D02*
X120875312Y-66372419D01*
X120875312Y-66372419D02*
X120875312Y-65372419D01*
X121351503Y-66372419D02*
X121351503Y-65372419D01*
X121351503Y-65372419D02*
X121589598Y-65372419D01*
X121589598Y-65372419D02*
X121732455Y-65420038D01*
X121732455Y-65420038D02*
X121827693Y-65515276D01*
X121827693Y-65515276D02*
X121875312Y-65610514D01*
X121875312Y-65610514D02*
X121922931Y-65800990D01*
X121922931Y-65800990D02*
X121922931Y-65943847D01*
X121922931Y-65943847D02*
X121875312Y-66134323D01*
X121875312Y-66134323D02*
X121827693Y-66229561D01*
X121827693Y-66229561D02*
X121732455Y-66324800D01*
X121732455Y-66324800D02*
X121589598Y-66372419D01*
X121589598Y-66372419D02*
X121351503Y-66372419D01*
X120327693Y-122420038D02*
X120232455Y-122372419D01*
X120232455Y-122372419D02*
X120089598Y-122372419D01*
X120089598Y-122372419D02*
X119946741Y-122420038D01*
X119946741Y-122420038D02*
X119851503Y-122515276D01*
X119851503Y-122515276D02*
X119803884Y-122610514D01*
X119803884Y-122610514D02*
X119756265Y-122800990D01*
X119756265Y-122800990D02*
X119756265Y-122943847D01*
X119756265Y-122943847D02*
X119803884Y-123134323D01*
X119803884Y-123134323D02*
X119851503Y-123229561D01*
X119851503Y-123229561D02*
X119946741Y-123324800D01*
X119946741Y-123324800D02*
X120089598Y-123372419D01*
X120089598Y-123372419D02*
X120184836Y-123372419D01*
X120184836Y-123372419D02*
X120327693Y-123324800D01*
X120327693Y-123324800D02*
X120375312Y-123277180D01*
X120375312Y-123277180D02*
X120375312Y-122943847D01*
X120375312Y-122943847D02*
X120184836Y-122943847D01*
X120803884Y-123372419D02*
X120803884Y-122372419D01*
X120803884Y-122372419D02*
X121375312Y-123372419D01*
X121375312Y-123372419D02*
X121375312Y-122372419D01*
X121851503Y-123372419D02*
X121851503Y-122372419D01*
X121851503Y-122372419D02*
X122089598Y-122372419D01*
X122089598Y-122372419D02*
X122232455Y-122420038D01*
X122232455Y-122420038D02*
X122327693Y-122515276D01*
X122327693Y-122515276D02*
X122375312Y-122610514D01*
X122375312Y-122610514D02*
X122422931Y-122800990D01*
X122422931Y-122800990D02*
X122422931Y-122943847D01*
X122422931Y-122943847D02*
X122375312Y-123134323D01*
X122375312Y-123134323D02*
X122327693Y-123229561D01*
X122327693Y-123229561D02*
X122232455Y-123324800D01*
X122232455Y-123324800D02*
X122089598Y-123372419D01*
X122089598Y-123372419D02*
X121851503Y-123372419D01*
D11*
G36*
X64908898Y-33806512D02*
G01*
X65134247Y-33874935D01*
X65283914Y-33969491D01*
X65419141Y-34127879D01*
X65534912Y-34350645D01*
X65633426Y-34644823D01*
X65705631Y-34979768D01*
X65749509Y-35347199D01*
X65764584Y-35754845D01*
X65751298Y-36146211D01*
X65713148Y-36489784D01*
X65651419Y-36793782D01*
X65565648Y-37064475D01*
X65460086Y-37288303D01*
X65329063Y-37472727D01*
X65168085Y-37616672D01*
X64971406Y-37715444D01*
X65154962Y-38003843D01*
X65296188Y-38304008D01*
X65430060Y-38694393D01*
X65641669Y-39442241D01*
X66008400Y-40810001D01*
X65282998Y-40810001D01*
X64844460Y-39282384D01*
X64625420Y-38545389D01*
X64524808Y-38253144D01*
X64433785Y-38070417D01*
X64342358Y-37962068D01*
X64231806Y-37906613D01*
X64036994Y-37882994D01*
X63914078Y-37882994D01*
X63914078Y-40810001D01*
X63307379Y-40810001D01*
X63307379Y-36761431D01*
X63914078Y-36761431D01*
X64362875Y-36761431D01*
X64759506Y-36731982D01*
X64908025Y-36674236D01*
X65005295Y-36554385D01*
X65078018Y-36373329D01*
X65123315Y-36140389D01*
X65139567Y-35839475D01*
X65129812Y-35606667D01*
X65102427Y-35416281D01*
X65058600Y-35259460D01*
X64963674Y-35082481D01*
X64830172Y-34980351D01*
X64387421Y-34955988D01*
X63914078Y-34955988D01*
X63914078Y-36761431D01*
X63307379Y-36761431D01*
X63307379Y-33779714D01*
X64584159Y-33779714D01*
X64908898Y-33806512D01*
G37*
G36*
X67931422Y-33712268D02*
G01*
X68166186Y-33832745D01*
X68374934Y-34026590D01*
X68561448Y-34292892D01*
X68728471Y-34634992D01*
X68866924Y-35033500D01*
X68976629Y-35491123D01*
X69057835Y-36016564D01*
X69109041Y-36621063D01*
X69127076Y-37317938D01*
X69109209Y-38008846D01*
X69058452Y-38608992D01*
X68977907Y-39131413D01*
X68869037Y-39587120D01*
X68731585Y-39984643D01*
X68565813Y-40325704D01*
X68380440Y-40591256D01*
X68172708Y-40784627D01*
X67938808Y-40904865D01*
X67674075Y-40946776D01*
X67405597Y-40904831D01*
X67169162Y-40784700D01*
X66959956Y-40591914D01*
X66774031Y-40327784D01*
X66608504Y-39989345D01*
X66470727Y-39593238D01*
X66361813Y-39140789D01*
X66281391Y-38623804D01*
X66230798Y-38031651D01*
X66213014Y-37351705D01*
X66214152Y-37303833D01*
X66838032Y-37303833D01*
X66855254Y-37910441D01*
X66902825Y-38403085D01*
X66976275Y-38802060D01*
X67073604Y-39123809D01*
X67200367Y-39396420D01*
X67340258Y-39587445D01*
X67496090Y-39703234D01*
X67672060Y-39743148D01*
X67848168Y-39703377D01*
X68003473Y-39588218D01*
X68142259Y-39398618D01*
X68267402Y-39128511D01*
X68362894Y-38809949D01*
X68435479Y-38409202D01*
X68482813Y-37908155D01*
X68500043Y-37284599D01*
X68483170Y-36667167D01*
X68436938Y-36173682D01*
X68366276Y-35781442D01*
X68273630Y-35471890D01*
X68152005Y-35211776D01*
X68013676Y-35027065D01*
X67855310Y-34913529D01*
X67672060Y-34873922D01*
X67489129Y-34913806D01*
X67330311Y-35028392D01*
X67190867Y-35215299D01*
X67067559Y-35479156D01*
X66973475Y-35792624D01*
X66901855Y-36188344D01*
X66855079Y-36684609D01*
X66838032Y-37303833D01*
X66214152Y-37303833D01*
X66229953Y-36639377D01*
X66277163Y-36043869D01*
X66350401Y-35547117D01*
X66471317Y-35037670D01*
X66629937Y-34582419D01*
X66754318Y-34317528D01*
X66883570Y-34107734D01*
X67018466Y-33948547D01*
X67209078Y-33797630D01*
X67423670Y-33703255D01*
X67666015Y-33670294D01*
X67931422Y-33712268D01*
G37*
G36*
X71137798Y-33800267D02*
G01*
X71335703Y-33849385D01*
X71502897Y-33957511D01*
X71649310Y-34139179D01*
X71774876Y-34392914D01*
X71879754Y-34726033D01*
X71930684Y-34977802D01*
X71961532Y-35250012D01*
X71972077Y-35547544D01*
X71959332Y-35868883D01*
X71921609Y-36168975D01*
X71858321Y-36453258D01*
X71773483Y-36705070D01*
X71671320Y-36909997D01*
X71549842Y-37071314D01*
X71723582Y-37231212D01*
X71862440Y-37444063D01*
X71971894Y-37709887D01*
X72053388Y-38025420D01*
X72102609Y-38375719D01*
X72119539Y-38770328D01*
X72109090Y-39085368D01*
X72077632Y-39395419D01*
X72024284Y-39703825D01*
X71951945Y-39989502D01*
X71865396Y-40229581D01*
X71763982Y-40428737D01*
X71649090Y-40582317D01*
X71514652Y-40694362D01*
X71357135Y-40762129D01*
X71153565Y-40789364D01*
X70625505Y-40810001D01*
X69602983Y-40810001D01*
X69602983Y-39633727D01*
X70209682Y-39633727D01*
X70771135Y-39633727D01*
X71069756Y-39619347D01*
X71187142Y-39590557D01*
X71310764Y-39489813D01*
X71407327Y-39308884D01*
X71453348Y-39148925D01*
X71482190Y-38952334D01*
X71492506Y-38709207D01*
X71475419Y-38410048D01*
X71426927Y-38170224D01*
X71348273Y-37981255D01*
X71237334Y-37847518D01*
X71077615Y-37779251D01*
X70699511Y-37746218D01*
X70209682Y-37746218D01*
X70209682Y-39633727D01*
X69602983Y-39633727D01*
X69602983Y-36569945D01*
X70209682Y-36569945D01*
X70607187Y-36569945D01*
X71047923Y-36546009D01*
X71190422Y-36458654D01*
X71292655Y-36296393D01*
X71341483Y-36146733D01*
X71371347Y-35967749D01*
X71381864Y-35750998D01*
X71361731Y-35451722D01*
X71304928Y-35225266D01*
X71248323Y-35112256D01*
X71173740Y-35029619D01*
X71076500Y-34979924D01*
X70558094Y-34955988D01*
X70209682Y-34955988D01*
X70209682Y-36569945D01*
X69602983Y-36569945D01*
X69602983Y-33779714D01*
X70803925Y-33779714D01*
X71137798Y-33800267D01*
G37*
G36*
X74227026Y-33712268D02*
G01*
X74461789Y-33832745D01*
X74670538Y-34026590D01*
X74857052Y-34292892D01*
X75024075Y-34634992D01*
X75162528Y-35033500D01*
X75272233Y-35491123D01*
X75353439Y-36016564D01*
X75404645Y-36621063D01*
X75422679Y-37317938D01*
X75404813Y-38008846D01*
X75354055Y-38608992D01*
X75273511Y-39131413D01*
X75164640Y-39587120D01*
X75027189Y-39984643D01*
X74861416Y-40325704D01*
X74676044Y-40591256D01*
X74468312Y-40784627D01*
X74234412Y-40904865D01*
X73969678Y-40946776D01*
X73701200Y-40904831D01*
X73464766Y-40784700D01*
X73255560Y-40591914D01*
X73069635Y-40327784D01*
X72904108Y-39989345D01*
X72766331Y-39593238D01*
X72657417Y-39140789D01*
X72576995Y-38623804D01*
X72526402Y-38031651D01*
X72508618Y-37351705D01*
X72509756Y-37303833D01*
X73133635Y-37303833D01*
X73150858Y-37910441D01*
X73198429Y-38403085D01*
X73271879Y-38802060D01*
X73369207Y-39123809D01*
X73495971Y-39396420D01*
X73635862Y-39587445D01*
X73791693Y-39703234D01*
X73967663Y-39743148D01*
X74143772Y-39703377D01*
X74299077Y-39588218D01*
X74437863Y-39398618D01*
X74563005Y-39128511D01*
X74658497Y-38809949D01*
X74731083Y-38409202D01*
X74778417Y-37908155D01*
X74795647Y-37284599D01*
X74778774Y-36667167D01*
X74732542Y-36173682D01*
X74661880Y-35781442D01*
X74569234Y-35471890D01*
X74447609Y-35211776D01*
X74309280Y-35027065D01*
X74150914Y-34913529D01*
X73967663Y-34873922D01*
X73784732Y-34913806D01*
X73625914Y-35028392D01*
X73486471Y-35215299D01*
X73363162Y-35479156D01*
X73269079Y-35792624D01*
X73197458Y-36188344D01*
X73150683Y-36684609D01*
X73133635Y-37303833D01*
X72509756Y-37303833D01*
X72525556Y-36639377D01*
X72572766Y-36043869D01*
X72646004Y-35547117D01*
X72766920Y-35037670D01*
X72925540Y-34582419D01*
X73049921Y-34317528D01*
X73179174Y-34107734D01*
X73314070Y-33948547D01*
X73504682Y-33797630D01*
X73719274Y-33703255D01*
X73961618Y-33670294D01*
X74227026Y-33712268D01*
G37*
G36*
X76572880Y-40810001D02*
G01*
X76572880Y-34955988D01*
X75681332Y-34955988D01*
X75681332Y-33779714D01*
X78068928Y-33779714D01*
X78068928Y-34955988D01*
X77179396Y-34955988D01*
X77179396Y-40810001D01*
X76572880Y-40810001D01*
G37*
G36*
X81107005Y-33814070D02*
G01*
X81322426Y-33885288D01*
X81484098Y-34030599D01*
X81627325Y-34257192D01*
X81754919Y-34573443D01*
X81848978Y-34946171D01*
X81908069Y-35395878D01*
X81929125Y-35941630D01*
X81916912Y-36368008D01*
X81882626Y-36727060D01*
X81828742Y-37029854D01*
X81753962Y-37308640D01*
X81669006Y-37537765D01*
X81573569Y-37722710D01*
X81414720Y-37934753D01*
X81258862Y-38055674D01*
X81017271Y-38127223D01*
X80629631Y-38156546D01*
X80234141Y-38156546D01*
X80234141Y-40810001D01*
X79627625Y-40810001D01*
X79627625Y-36980273D01*
X80234141Y-36980273D01*
X80566067Y-36980273D01*
X80895134Y-36944617D01*
X81045638Y-36868287D01*
X81154147Y-36723556D01*
X81235232Y-36518226D01*
X81286337Y-36263600D01*
X81303925Y-35963429D01*
X81292593Y-35712393D01*
X81260285Y-35501080D01*
X81207571Y-35321009D01*
X81137771Y-35173596D01*
X81057215Y-35068781D01*
X80963756Y-35004714D01*
X80827984Y-34971573D01*
X80527233Y-34955988D01*
X80234141Y-34955988D01*
X80234141Y-36980273D01*
X79627625Y-36980273D01*
X79627625Y-33779714D01*
X80601055Y-33779714D01*
X81107005Y-33814070D01*
G37*
G36*
X84022141Y-33712268D02*
G01*
X84256904Y-33832745D01*
X84465653Y-34026590D01*
X84652167Y-34292892D01*
X84819190Y-34634992D01*
X84957643Y-35033500D01*
X85067348Y-35491123D01*
X85148554Y-36016564D01*
X85199760Y-36621063D01*
X85217794Y-37317938D01*
X85199928Y-38008846D01*
X85149170Y-38608992D01*
X85068626Y-39131413D01*
X84959755Y-39587120D01*
X84822304Y-39984643D01*
X84656531Y-40325704D01*
X84471159Y-40591256D01*
X84263427Y-40784627D01*
X84029527Y-40904865D01*
X83764794Y-40946776D01*
X83496315Y-40904831D01*
X83259881Y-40784700D01*
X83050675Y-40591914D01*
X82864750Y-40327784D01*
X82699223Y-39989345D01*
X82561446Y-39593238D01*
X82452532Y-39140789D01*
X82372110Y-38623804D01*
X82321517Y-38031651D01*
X82303733Y-37351705D01*
X82304871Y-37303833D01*
X82928750Y-37303833D01*
X82945973Y-37910441D01*
X82993544Y-38403085D01*
X83066994Y-38802060D01*
X83164323Y-39123809D01*
X83291086Y-39396420D01*
X83430977Y-39587445D01*
X83586808Y-39703234D01*
X83762779Y-39743148D01*
X83938887Y-39703377D01*
X84094192Y-39588218D01*
X84232978Y-39398618D01*
X84358121Y-39128511D01*
X84453612Y-38809949D01*
X84526198Y-38409202D01*
X84573532Y-37908155D01*
X84590762Y-37284599D01*
X84573889Y-36667167D01*
X84527657Y-36173682D01*
X84456995Y-35781442D01*
X84364349Y-35471890D01*
X84242724Y-35211776D01*
X84104395Y-35027065D01*
X83946029Y-34913529D01*
X83762779Y-34873922D01*
X83579848Y-34913806D01*
X83421029Y-35028392D01*
X83281586Y-35215299D01*
X83158278Y-35479156D01*
X83064194Y-35792624D01*
X82992573Y-36188344D01*
X82945798Y-36684609D01*
X82928750Y-37303833D01*
X82304871Y-37303833D01*
X82320671Y-36639377D01*
X82367881Y-36043869D01*
X82441120Y-35547117D01*
X82562035Y-35037670D01*
X82720655Y-34582419D01*
X82845036Y-34317528D01*
X82974289Y-34107734D01*
X83109185Y-33948547D01*
X83299797Y-33797630D01*
X83514389Y-33703255D01*
X83756734Y-33670294D01*
X84022141Y-33712268D01*
G37*
G36*
X86117951Y-40810001D02*
G01*
X85400610Y-33779714D01*
X86021598Y-33779714D01*
X86474607Y-38608762D01*
X87023787Y-33779714D01*
X87745158Y-33779714D01*
X88271807Y-38690400D01*
X88732876Y-33779714D01*
X89343606Y-33779714D01*
X88613991Y-40810001D01*
X87970472Y-40810001D01*
X87372199Y-35553955D01*
X86775758Y-40810001D01*
X86117951Y-40810001D01*
G37*
G36*
X89654282Y-40810001D02*
G01*
X89654282Y-33779714D01*
X91881960Y-33779714D01*
X91881960Y-34955988D01*
X90260799Y-34955988D01*
X90260799Y-36515234D01*
X91769120Y-36515234D01*
X91769120Y-37691508D01*
X90260799Y-37691508D01*
X90260799Y-39633727D01*
X91939296Y-39633727D01*
X91939296Y-40810001D01*
X89654282Y-40810001D01*
G37*
G36*
X94056839Y-33806512D02*
G01*
X94282188Y-33874935D01*
X94431856Y-33969491D01*
X94567083Y-34127879D01*
X94682854Y-34350645D01*
X94781367Y-34644823D01*
X94853573Y-34979768D01*
X94897451Y-35347199D01*
X94912526Y-35754845D01*
X94899239Y-36146211D01*
X94861089Y-36489784D01*
X94799361Y-36793782D01*
X94713590Y-37064475D01*
X94608027Y-37288303D01*
X94477004Y-37472727D01*
X94316027Y-37616672D01*
X94119347Y-37715444D01*
X94302903Y-38003843D01*
X94444129Y-38304008D01*
X94578001Y-38694393D01*
X94789610Y-39442241D01*
X95156341Y-40810001D01*
X94430940Y-40810001D01*
X93992402Y-39282384D01*
X93773362Y-38545389D01*
X93672749Y-38253144D01*
X93581727Y-38070417D01*
X93490300Y-37962068D01*
X93379747Y-37906613D01*
X93184935Y-37882994D01*
X93062020Y-37882994D01*
X93062020Y-40810001D01*
X92455321Y-40810001D01*
X92455321Y-36761431D01*
X93062020Y-36761431D01*
X93510816Y-36761431D01*
X93907448Y-36731982D01*
X94055966Y-36674236D01*
X94153237Y-36554385D01*
X94225959Y-36373329D01*
X94271256Y-36140389D01*
X94287508Y-35839475D01*
X94277753Y-35606667D01*
X94250368Y-35416281D01*
X94206542Y-35259460D01*
X94111615Y-35082481D01*
X93978114Y-34980351D01*
X93535362Y-34955988D01*
X93062020Y-34955988D01*
X93062020Y-36761431D01*
X92455321Y-36761431D01*
X92455321Y-33779714D01*
X93732100Y-33779714D01*
X94056839Y-33806512D01*
G37*
D10*
X212780074Y-67872419D02*
X212303884Y-67872419D01*
X212303884Y-67872419D02*
X212256265Y-68348609D01*
X212256265Y-68348609D02*
X212303884Y-68300990D01*
X212303884Y-68300990D02*
X212399122Y-68253371D01*
X212399122Y-68253371D02*
X212637217Y-68253371D01*
X212637217Y-68253371D02*
X212732455Y-68300990D01*
X212732455Y-68300990D02*
X212780074Y-68348609D01*
X212780074Y-68348609D02*
X212827693Y-68443847D01*
X212827693Y-68443847D02*
X212827693Y-68681942D01*
X212827693Y-68681942D02*
X212780074Y-68777180D01*
X212780074Y-68777180D02*
X212732455Y-68824800D01*
X212732455Y-68824800D02*
X212637217Y-68872419D01*
X212637217Y-68872419D02*
X212399122Y-68872419D01*
X212399122Y-68872419D02*
X212303884Y-68824800D01*
X212303884Y-68824800D02*
X212256265Y-68777180D01*
X213113408Y-67872419D02*
X213446741Y-68872419D01*
X213446741Y-68872419D02*
X213780074Y-67872419D01*
X214875313Y-68348609D02*
X215208646Y-68348609D01*
X215351503Y-68872419D02*
X214875313Y-68872419D01*
X214875313Y-68872419D02*
X214875313Y-67872419D01*
X214875313Y-67872419D02*
X215351503Y-67872419D01*
X215684837Y-67872419D02*
X216351503Y-68872419D01*
X216351503Y-67872419D02*
X215684837Y-68872419D01*
X216589599Y-67872419D02*
X217161027Y-67872419D01*
X216875313Y-68872419D02*
X216875313Y-67872419D01*
X218065789Y-68872419D02*
X217732456Y-68396228D01*
X217494361Y-68872419D02*
X217494361Y-67872419D01*
X217494361Y-67872419D02*
X217875313Y-67872419D01*
X217875313Y-67872419D02*
X217970551Y-67920038D01*
X217970551Y-67920038D02*
X218018170Y-67967657D01*
X218018170Y-67967657D02*
X218065789Y-68062895D01*
X218065789Y-68062895D02*
X218065789Y-68205752D01*
X218065789Y-68205752D02*
X218018170Y-68300990D01*
X218018170Y-68300990D02*
X217970551Y-68348609D01*
X217970551Y-68348609D02*
X217875313Y-68396228D01*
X217875313Y-68396228D02*
X217494361Y-68396228D01*
X218446742Y-68586704D02*
X218922932Y-68586704D01*
X218351504Y-68872419D02*
X218684837Y-67872419D01*
X218684837Y-67872419D02*
X219018170Y-68872419D01*
X220637218Y-68872419D02*
X220065790Y-68872419D01*
X220351504Y-68872419D02*
X220351504Y-67872419D01*
X220351504Y-67872419D02*
X220256266Y-68015276D01*
X220256266Y-68015276D02*
X220161028Y-68110514D01*
X220161028Y-68110514D02*
X220065790Y-68158133D01*
X120827693Y-35420038D02*
X120732455Y-35372419D01*
X120732455Y-35372419D02*
X120589598Y-35372419D01*
X120589598Y-35372419D02*
X120446741Y-35420038D01*
X120446741Y-35420038D02*
X120351503Y-35515276D01*
X120351503Y-35515276D02*
X120303884Y-35610514D01*
X120303884Y-35610514D02*
X120256265Y-35800990D01*
X120256265Y-35800990D02*
X120256265Y-35943847D01*
X120256265Y-35943847D02*
X120303884Y-36134323D01*
X120303884Y-36134323D02*
X120351503Y-36229561D01*
X120351503Y-36229561D02*
X120446741Y-36324800D01*
X120446741Y-36324800D02*
X120589598Y-36372419D01*
X120589598Y-36372419D02*
X120684836Y-36372419D01*
X120684836Y-36372419D02*
X120827693Y-36324800D01*
X120827693Y-36324800D02*
X120875312Y-36277180D01*
X120875312Y-36277180D02*
X120875312Y-35943847D01*
X120875312Y-35943847D02*
X120684836Y-35943847D01*
X121303884Y-36372419D02*
X121303884Y-35372419D01*
X121303884Y-35372419D02*
X121875312Y-36372419D01*
X121875312Y-36372419D02*
X121875312Y-35372419D01*
X122351503Y-36372419D02*
X122351503Y-35372419D01*
X122351503Y-35372419D02*
X122589598Y-35372419D01*
X122589598Y-35372419D02*
X122732455Y-35420038D01*
X122732455Y-35420038D02*
X122827693Y-35515276D01*
X122827693Y-35515276D02*
X122875312Y-35610514D01*
X122875312Y-35610514D02*
X122922931Y-35800990D01*
X122922931Y-35800990D02*
X122922931Y-35943847D01*
X122922931Y-35943847D02*
X122875312Y-36134323D01*
X122875312Y-36134323D02*
X122827693Y-36229561D01*
X122827693Y-36229561D02*
X122732455Y-36324800D01*
X122732455Y-36324800D02*
X122589598Y-36372419D01*
X122589598Y-36372419D02*
X122351503Y-36372419D01*
X52303884Y-102872419D02*
X52303884Y-101872419D01*
X52303884Y-101872419D02*
X52637217Y-102586704D01*
X52637217Y-102586704D02*
X52970550Y-101872419D01*
X52970550Y-101872419D02*
X52970550Y-102872419D01*
X53637217Y-101872419D02*
X53827693Y-101872419D01*
X53827693Y-101872419D02*
X53922931Y-101920038D01*
X53922931Y-101920038D02*
X54018169Y-102015276D01*
X54018169Y-102015276D02*
X54065788Y-102205752D01*
X54065788Y-102205752D02*
X54065788Y-102539085D01*
X54065788Y-102539085D02*
X54018169Y-102729561D01*
X54018169Y-102729561D02*
X53922931Y-102824800D01*
X53922931Y-102824800D02*
X53827693Y-102872419D01*
X53827693Y-102872419D02*
X53637217Y-102872419D01*
X53637217Y-102872419D02*
X53541979Y-102824800D01*
X53541979Y-102824800D02*
X53446741Y-102729561D01*
X53446741Y-102729561D02*
X53399122Y-102539085D01*
X53399122Y-102539085D02*
X53399122Y-102205752D01*
X53399122Y-102205752D02*
X53446741Y-102015276D01*
X53446741Y-102015276D02*
X53541979Y-101920038D01*
X53541979Y-101920038D02*
X53637217Y-101872419D01*
X54351503Y-101872419D02*
X54922931Y-101872419D01*
X54637217Y-102872419D02*
X54637217Y-101872419D01*
X55446741Y-101872419D02*
X55637217Y-101872419D01*
X55637217Y-101872419D02*
X55732455Y-101920038D01*
X55732455Y-101920038D02*
X55827693Y-102015276D01*
X55827693Y-102015276D02*
X55875312Y-102205752D01*
X55875312Y-102205752D02*
X55875312Y-102539085D01*
X55875312Y-102539085D02*
X55827693Y-102729561D01*
X55827693Y-102729561D02*
X55732455Y-102824800D01*
X55732455Y-102824800D02*
X55637217Y-102872419D01*
X55637217Y-102872419D02*
X55446741Y-102872419D01*
X55446741Y-102872419D02*
X55351503Y-102824800D01*
X55351503Y-102824800D02*
X55256265Y-102729561D01*
X55256265Y-102729561D02*
X55208646Y-102539085D01*
X55208646Y-102539085D02*
X55208646Y-102205752D01*
X55208646Y-102205752D02*
X55256265Y-102015276D01*
X55256265Y-102015276D02*
X55351503Y-101920038D01*
X55351503Y-101920038D02*
X55446741Y-101872419D01*
X56875312Y-102872419D02*
X56541979Y-102396228D01*
X56303884Y-102872419D02*
X56303884Y-101872419D01*
X56303884Y-101872419D02*
X56684836Y-101872419D01*
X56684836Y-101872419D02*
X56780074Y-101920038D01*
X56780074Y-101920038D02*
X56827693Y-101967657D01*
X56827693Y-101967657D02*
X56875312Y-102062895D01*
X56875312Y-102062895D02*
X56875312Y-102205752D01*
X56875312Y-102205752D02*
X56827693Y-102300990D01*
X56827693Y-102300990D02*
X56780074Y-102348609D01*
X56780074Y-102348609D02*
X56684836Y-102396228D01*
X56684836Y-102396228D02*
X56303884Y-102396228D01*
X57970551Y-101872419D02*
X58589598Y-101872419D01*
X58589598Y-101872419D02*
X58256265Y-102253371D01*
X58256265Y-102253371D02*
X58399122Y-102253371D01*
X58399122Y-102253371D02*
X58494360Y-102300990D01*
X58494360Y-102300990D02*
X58541979Y-102348609D01*
X58541979Y-102348609D02*
X58589598Y-102443847D01*
X58589598Y-102443847D02*
X58589598Y-102681942D01*
X58589598Y-102681942D02*
X58541979Y-102777180D01*
X58541979Y-102777180D02*
X58494360Y-102824800D01*
X58494360Y-102824800D02*
X58399122Y-102872419D01*
X58399122Y-102872419D02*
X58113408Y-102872419D01*
X58113408Y-102872419D02*
X58018170Y-102824800D01*
X58018170Y-102824800D02*
X57970551Y-102777180D01*
X120161027Y-52872419D02*
X120494360Y-53872419D01*
X120494360Y-53872419D02*
X120827693Y-52872419D01*
X121161027Y-53872419D02*
X121161027Y-52872419D01*
X121637217Y-53872419D02*
X121637217Y-52872419D01*
X121637217Y-52872419D02*
X122208645Y-53872419D01*
X122208645Y-53872419D02*
X122208645Y-52872419D01*
X122684836Y-53491466D02*
X123446741Y-53491466D01*
X123065788Y-53872419D02*
X123065788Y-53110514D01*
X212780074Y-91872419D02*
X212303884Y-91872419D01*
X212303884Y-91872419D02*
X212256265Y-92348609D01*
X212256265Y-92348609D02*
X212303884Y-92300990D01*
X212303884Y-92300990D02*
X212399122Y-92253371D01*
X212399122Y-92253371D02*
X212637217Y-92253371D01*
X212637217Y-92253371D02*
X212732455Y-92300990D01*
X212732455Y-92300990D02*
X212780074Y-92348609D01*
X212780074Y-92348609D02*
X212827693Y-92443847D01*
X212827693Y-92443847D02*
X212827693Y-92681942D01*
X212827693Y-92681942D02*
X212780074Y-92777180D01*
X212780074Y-92777180D02*
X212732455Y-92824800D01*
X212732455Y-92824800D02*
X212637217Y-92872419D01*
X212637217Y-92872419D02*
X212399122Y-92872419D01*
X212399122Y-92872419D02*
X212303884Y-92824800D01*
X212303884Y-92824800D02*
X212256265Y-92777180D01*
X213113408Y-91872419D02*
X213446741Y-92872419D01*
X213446741Y-92872419D02*
X213780074Y-91872419D01*
X214827694Y-92824800D02*
X214970551Y-92872419D01*
X214970551Y-92872419D02*
X215208646Y-92872419D01*
X215208646Y-92872419D02*
X215303884Y-92824800D01*
X215303884Y-92824800D02*
X215351503Y-92777180D01*
X215351503Y-92777180D02*
X215399122Y-92681942D01*
X215399122Y-92681942D02*
X215399122Y-92586704D01*
X215399122Y-92586704D02*
X215351503Y-92491466D01*
X215351503Y-92491466D02*
X215303884Y-92443847D01*
X215303884Y-92443847D02*
X215208646Y-92396228D01*
X215208646Y-92396228D02*
X215018170Y-92348609D01*
X215018170Y-92348609D02*
X214922932Y-92300990D01*
X214922932Y-92300990D02*
X214875313Y-92253371D01*
X214875313Y-92253371D02*
X214827694Y-92158133D01*
X214827694Y-92158133D02*
X214827694Y-92062895D01*
X214827694Y-92062895D02*
X214875313Y-91967657D01*
X214875313Y-91967657D02*
X214922932Y-91920038D01*
X214922932Y-91920038D02*
X215018170Y-91872419D01*
X215018170Y-91872419D02*
X215256265Y-91872419D01*
X215256265Y-91872419D02*
X215399122Y-91920038D01*
X216399122Y-92777180D02*
X216351503Y-92824800D01*
X216351503Y-92824800D02*
X216208646Y-92872419D01*
X216208646Y-92872419D02*
X216113408Y-92872419D01*
X216113408Y-92872419D02*
X215970551Y-92824800D01*
X215970551Y-92824800D02*
X215875313Y-92729561D01*
X215875313Y-92729561D02*
X215827694Y-92634323D01*
X215827694Y-92634323D02*
X215780075Y-92443847D01*
X215780075Y-92443847D02*
X215780075Y-92300990D01*
X215780075Y-92300990D02*
X215827694Y-92110514D01*
X215827694Y-92110514D02*
X215875313Y-92015276D01*
X215875313Y-92015276D02*
X215970551Y-91920038D01*
X215970551Y-91920038D02*
X216113408Y-91872419D01*
X216113408Y-91872419D02*
X216208646Y-91872419D01*
X216208646Y-91872419D02*
X216351503Y-91920038D01*
X216351503Y-91920038D02*
X216399122Y-91967657D01*
X217399122Y-92872419D02*
X217065789Y-92396228D01*
X216827694Y-92872419D02*
X216827694Y-91872419D01*
X216827694Y-91872419D02*
X217208646Y-91872419D01*
X217208646Y-91872419D02*
X217303884Y-91920038D01*
X217303884Y-91920038D02*
X217351503Y-91967657D01*
X217351503Y-91967657D02*
X217399122Y-92062895D01*
X217399122Y-92062895D02*
X217399122Y-92205752D01*
X217399122Y-92205752D02*
X217351503Y-92300990D01*
X217351503Y-92300990D02*
X217303884Y-92348609D01*
X217303884Y-92348609D02*
X217208646Y-92396228D01*
X217208646Y-92396228D02*
X216827694Y-92396228D01*
X217827694Y-92348609D02*
X218161027Y-92348609D01*
X218303884Y-92872419D02*
X217827694Y-92872419D01*
X217827694Y-92872419D02*
X217827694Y-91872419D01*
X217827694Y-91872419D02*
X218303884Y-91872419D01*
X218732456Y-92348609D02*
X219065789Y-92348609D01*
X219208646Y-92872419D02*
X218732456Y-92872419D01*
X218732456Y-92872419D02*
X218732456Y-91872419D01*
X218732456Y-91872419D02*
X219208646Y-91872419D01*
X219637218Y-92872419D02*
X219637218Y-91872419D01*
X219637218Y-91872419D02*
X220208646Y-92872419D01*
X220208646Y-92872419D02*
X220208646Y-91872419D01*
D12*
X68344140Y-146871119D02*
X67772712Y-146871119D01*
X68058426Y-146871119D02*
X68058426Y-145871119D01*
X68058426Y-145871119D02*
X67963188Y-146013976D01*
X67963188Y-146013976D02*
X67867950Y-146109214D01*
X67867950Y-146109214D02*
X67772712Y-146156833D01*
X68725093Y-145966357D02*
X68772712Y-145918738D01*
X68772712Y-145918738D02*
X68867950Y-145871119D01*
X68867950Y-145871119D02*
X69106045Y-145871119D01*
X69106045Y-145871119D02*
X69201283Y-145918738D01*
X69201283Y-145918738D02*
X69248902Y-145966357D01*
X69248902Y-145966357D02*
X69296521Y-146061595D01*
X69296521Y-146061595D02*
X69296521Y-146156833D01*
X69296521Y-146156833D02*
X69248902Y-146299690D01*
X69248902Y-146299690D02*
X68677474Y-146871119D01*
X68677474Y-146871119D02*
X69296521Y-146871119D01*
X69629855Y-146204452D02*
X69867950Y-146871119D01*
X69867950Y-146871119D02*
X70106045Y-146204452D01*
X71201284Y-146823500D02*
X71344141Y-146871119D01*
X71344141Y-146871119D02*
X71582236Y-146871119D01*
X71582236Y-146871119D02*
X71677474Y-146823500D01*
X71677474Y-146823500D02*
X71725093Y-146775880D01*
X71725093Y-146775880D02*
X71772712Y-146680642D01*
X71772712Y-146680642D02*
X71772712Y-146585404D01*
X71772712Y-146585404D02*
X71725093Y-146490166D01*
X71725093Y-146490166D02*
X71677474Y-146442547D01*
X71677474Y-146442547D02*
X71582236Y-146394928D01*
X71582236Y-146394928D02*
X71391760Y-146347309D01*
X71391760Y-146347309D02*
X71296522Y-146299690D01*
X71296522Y-146299690D02*
X71248903Y-146252071D01*
X71248903Y-146252071D02*
X71201284Y-146156833D01*
X71201284Y-146156833D02*
X71201284Y-146061595D01*
X71201284Y-146061595D02*
X71248903Y-145966357D01*
X71248903Y-145966357D02*
X71296522Y-145918738D01*
X71296522Y-145918738D02*
X71391760Y-145871119D01*
X71391760Y-145871119D02*
X71629855Y-145871119D01*
X71629855Y-145871119D02*
X71772712Y-145918738D01*
X72772712Y-146775880D02*
X72725093Y-146823500D01*
X72725093Y-146823500D02*
X72582236Y-146871119D01*
X72582236Y-146871119D02*
X72486998Y-146871119D01*
X72486998Y-146871119D02*
X72344141Y-146823500D01*
X72344141Y-146823500D02*
X72248903Y-146728261D01*
X72248903Y-146728261D02*
X72201284Y-146633023D01*
X72201284Y-146633023D02*
X72153665Y-146442547D01*
X72153665Y-146442547D02*
X72153665Y-146299690D01*
X72153665Y-146299690D02*
X72201284Y-146109214D01*
X72201284Y-146109214D02*
X72248903Y-146013976D01*
X72248903Y-146013976D02*
X72344141Y-145918738D01*
X72344141Y-145918738D02*
X72486998Y-145871119D01*
X72486998Y-145871119D02*
X72582236Y-145871119D01*
X72582236Y-145871119D02*
X72725093Y-145918738D01*
X72725093Y-145918738D02*
X72772712Y-145966357D01*
X73772712Y-146871119D02*
X73439379Y-146394928D01*
X73201284Y-146871119D02*
X73201284Y-145871119D01*
X73201284Y-145871119D02*
X73582236Y-145871119D01*
X73582236Y-145871119D02*
X73677474Y-145918738D01*
X73677474Y-145918738D02*
X73725093Y-145966357D01*
X73725093Y-145966357D02*
X73772712Y-146061595D01*
X73772712Y-146061595D02*
X73772712Y-146204452D01*
X73772712Y-146204452D02*
X73725093Y-146299690D01*
X73725093Y-146299690D02*
X73677474Y-146347309D01*
X73677474Y-146347309D02*
X73582236Y-146394928D01*
X73582236Y-146394928D02*
X73201284Y-146394928D01*
X74201284Y-146347309D02*
X74534617Y-146347309D01*
X74677474Y-146871119D02*
X74201284Y-146871119D01*
X74201284Y-146871119D02*
X74201284Y-145871119D01*
X74201284Y-145871119D02*
X74677474Y-145871119D01*
X75106046Y-146347309D02*
X75439379Y-146347309D01*
X75582236Y-146871119D02*
X75106046Y-146871119D01*
X75106046Y-146871119D02*
X75106046Y-145871119D01*
X75106046Y-145871119D02*
X75582236Y-145871119D01*
X76010808Y-146871119D02*
X76010808Y-145871119D01*
X76010808Y-145871119D02*
X76582236Y-146871119D01*
X76582236Y-146871119D02*
X76582236Y-145871119D01*
D10*
X120661027Y-109372419D02*
X120994360Y-110372419D01*
X120994360Y-110372419D02*
X121327693Y-109372419D01*
X121661027Y-110372419D02*
X121661027Y-109372419D01*
X122137217Y-110372419D02*
X122137217Y-109372419D01*
X122137217Y-109372419D02*
X122708645Y-110372419D01*
X122708645Y-110372419D02*
X122708645Y-109372419D01*
X123184836Y-109991466D02*
X123946741Y-109991466D01*
X123565788Y-110372419D02*
X123565788Y-109610514D01*
X150661027Y-80372419D02*
X150994360Y-81372419D01*
X150994360Y-81372419D02*
X151327693Y-80372419D01*
X151851503Y-80372419D02*
X152041979Y-80372419D01*
X152041979Y-80372419D02*
X152137217Y-80420038D01*
X152137217Y-80420038D02*
X152232455Y-80515276D01*
X152232455Y-80515276D02*
X152280074Y-80705752D01*
X152280074Y-80705752D02*
X152280074Y-81039085D01*
X152280074Y-81039085D02*
X152232455Y-81229561D01*
X152232455Y-81229561D02*
X152137217Y-81324800D01*
X152137217Y-81324800D02*
X152041979Y-81372419D01*
X152041979Y-81372419D02*
X151851503Y-81372419D01*
X151851503Y-81372419D02*
X151756265Y-81324800D01*
X151756265Y-81324800D02*
X151661027Y-81229561D01*
X151661027Y-81229561D02*
X151613408Y-81039085D01*
X151613408Y-81039085D02*
X151613408Y-80705752D01*
X151613408Y-80705752D02*
X151661027Y-80515276D01*
X151661027Y-80515276D02*
X151756265Y-80420038D01*
X151756265Y-80420038D02*
X151851503Y-80372419D01*
X152708646Y-80372419D02*
X152708646Y-81181942D01*
X152708646Y-81181942D02*
X152756265Y-81277180D01*
X152756265Y-81277180D02*
X152803884Y-81324800D01*
X152803884Y-81324800D02*
X152899122Y-81372419D01*
X152899122Y-81372419D02*
X153089598Y-81372419D01*
X153089598Y-81372419D02*
X153184836Y-81324800D01*
X153184836Y-81324800D02*
X153232455Y-81277180D01*
X153232455Y-81277180D02*
X153280074Y-81181942D01*
X153280074Y-81181942D02*
X153280074Y-80372419D01*
X153613408Y-80372419D02*
X154184836Y-80372419D01*
X153899122Y-81372419D02*
X153899122Y-80372419D01*
X154518170Y-80991466D02*
X155280075Y-80991466D01*
X154899122Y-81372419D02*
X154899122Y-80610514D01*
X153327693Y-94920038D02*
X153232455Y-94872419D01*
X153232455Y-94872419D02*
X153089598Y-94872419D01*
X153089598Y-94872419D02*
X152946741Y-94920038D01*
X152946741Y-94920038D02*
X152851503Y-95015276D01*
X152851503Y-95015276D02*
X152803884Y-95110514D01*
X152803884Y-95110514D02*
X152756265Y-95300990D01*
X152756265Y-95300990D02*
X152756265Y-95443847D01*
X152756265Y-95443847D02*
X152803884Y-95634323D01*
X152803884Y-95634323D02*
X152851503Y-95729561D01*
X152851503Y-95729561D02*
X152946741Y-95824800D01*
X152946741Y-95824800D02*
X153089598Y-95872419D01*
X153089598Y-95872419D02*
X153184836Y-95872419D01*
X153184836Y-95872419D02*
X153327693Y-95824800D01*
X153327693Y-95824800D02*
X153375312Y-95777180D01*
X153375312Y-95777180D02*
X153375312Y-95443847D01*
X153375312Y-95443847D02*
X153184836Y-95443847D01*
X153803884Y-95872419D02*
X153803884Y-94872419D01*
X153803884Y-94872419D02*
X154375312Y-95872419D01*
X154375312Y-95872419D02*
X154375312Y-94872419D01*
X154851503Y-95872419D02*
X154851503Y-94872419D01*
X154851503Y-94872419D02*
X155089598Y-94872419D01*
X155089598Y-94872419D02*
X155232455Y-94920038D01*
X155232455Y-94920038D02*
X155327693Y-95015276D01*
X155327693Y-95015276D02*
X155375312Y-95110514D01*
X155375312Y-95110514D02*
X155422931Y-95300990D01*
X155422931Y-95300990D02*
X155422931Y-95443847D01*
X155422931Y-95443847D02*
X155375312Y-95634323D01*
X155375312Y-95634323D02*
X155327693Y-95729561D01*
X155327693Y-95729561D02*
X155232455Y-95824800D01*
X155232455Y-95824800D02*
X155089598Y-95872419D01*
X155089598Y-95872419D02*
X154851503Y-95872419D01*
X212780074Y-115872419D02*
X212303884Y-115872419D01*
X212303884Y-115872419D02*
X212256265Y-116348609D01*
X212256265Y-116348609D02*
X212303884Y-116300990D01*
X212303884Y-116300990D02*
X212399122Y-116253371D01*
X212399122Y-116253371D02*
X212637217Y-116253371D01*
X212637217Y-116253371D02*
X212732455Y-116300990D01*
X212732455Y-116300990D02*
X212780074Y-116348609D01*
X212780074Y-116348609D02*
X212827693Y-116443847D01*
X212827693Y-116443847D02*
X212827693Y-116681942D01*
X212827693Y-116681942D02*
X212780074Y-116777180D01*
X212780074Y-116777180D02*
X212732455Y-116824800D01*
X212732455Y-116824800D02*
X212637217Y-116872419D01*
X212637217Y-116872419D02*
X212399122Y-116872419D01*
X212399122Y-116872419D02*
X212303884Y-116824800D01*
X212303884Y-116824800D02*
X212256265Y-116777180D01*
X213113408Y-115872419D02*
X213446741Y-116872419D01*
X213446741Y-116872419D02*
X213780074Y-115872419D01*
X214875313Y-116348609D02*
X215208646Y-116348609D01*
X215351503Y-116872419D02*
X214875313Y-116872419D01*
X214875313Y-116872419D02*
X214875313Y-115872419D01*
X214875313Y-115872419D02*
X215351503Y-115872419D01*
X215684837Y-115872419D02*
X216351503Y-116872419D01*
X216351503Y-115872419D02*
X215684837Y-116872419D01*
X216589599Y-115872419D02*
X217161027Y-115872419D01*
X216875313Y-116872419D02*
X216875313Y-115872419D01*
X218065789Y-116872419D02*
X217732456Y-116396228D01*
X217494361Y-116872419D02*
X217494361Y-115872419D01*
X217494361Y-115872419D02*
X217875313Y-115872419D01*
X217875313Y-115872419D02*
X217970551Y-115920038D01*
X217970551Y-115920038D02*
X218018170Y-115967657D01*
X218018170Y-115967657D02*
X218065789Y-116062895D01*
X218065789Y-116062895D02*
X218065789Y-116205752D01*
X218065789Y-116205752D02*
X218018170Y-116300990D01*
X218018170Y-116300990D02*
X217970551Y-116348609D01*
X217970551Y-116348609D02*
X217875313Y-116396228D01*
X217875313Y-116396228D02*
X217494361Y-116396228D01*
X218446742Y-116586704D02*
X218922932Y-116586704D01*
X218351504Y-116872419D02*
X218684837Y-115872419D01*
X218684837Y-115872419D02*
X219018170Y-116872419D01*
X220065790Y-115967657D02*
X220113409Y-115920038D01*
X220113409Y-115920038D02*
X220208647Y-115872419D01*
X220208647Y-115872419D02*
X220446742Y-115872419D01*
X220446742Y-115872419D02*
X220541980Y-115920038D01*
X220541980Y-115920038D02*
X220589599Y-115967657D01*
X220589599Y-115967657D02*
X220637218Y-116062895D01*
X220637218Y-116062895D02*
X220637218Y-116158133D01*
X220637218Y-116158133D02*
X220589599Y-116300990D01*
X220589599Y-116300990D02*
X220018171Y-116872419D01*
X220018171Y-116872419D02*
X220637218Y-116872419D01*
X52303884Y-77372419D02*
X52303884Y-76372419D01*
X52303884Y-76372419D02*
X52637217Y-77086704D01*
X52637217Y-77086704D02*
X52970550Y-76372419D01*
X52970550Y-76372419D02*
X52970550Y-77372419D01*
X53637217Y-76372419D02*
X53827693Y-76372419D01*
X53827693Y-76372419D02*
X53922931Y-76420038D01*
X53922931Y-76420038D02*
X54018169Y-76515276D01*
X54018169Y-76515276D02*
X54065788Y-76705752D01*
X54065788Y-76705752D02*
X54065788Y-77039085D01*
X54065788Y-77039085D02*
X54018169Y-77229561D01*
X54018169Y-77229561D02*
X53922931Y-77324800D01*
X53922931Y-77324800D02*
X53827693Y-77372419D01*
X53827693Y-77372419D02*
X53637217Y-77372419D01*
X53637217Y-77372419D02*
X53541979Y-77324800D01*
X53541979Y-77324800D02*
X53446741Y-77229561D01*
X53446741Y-77229561D02*
X53399122Y-77039085D01*
X53399122Y-77039085D02*
X53399122Y-76705752D01*
X53399122Y-76705752D02*
X53446741Y-76515276D01*
X53446741Y-76515276D02*
X53541979Y-76420038D01*
X53541979Y-76420038D02*
X53637217Y-76372419D01*
X54351503Y-76372419D02*
X54922931Y-76372419D01*
X54637217Y-77372419D02*
X54637217Y-76372419D01*
X55446741Y-76372419D02*
X55637217Y-76372419D01*
X55637217Y-76372419D02*
X55732455Y-76420038D01*
X55732455Y-76420038D02*
X55827693Y-76515276D01*
X55827693Y-76515276D02*
X55875312Y-76705752D01*
X55875312Y-76705752D02*
X55875312Y-77039085D01*
X55875312Y-77039085D02*
X55827693Y-77229561D01*
X55827693Y-77229561D02*
X55732455Y-77324800D01*
X55732455Y-77324800D02*
X55637217Y-77372419D01*
X55637217Y-77372419D02*
X55446741Y-77372419D01*
X55446741Y-77372419D02*
X55351503Y-77324800D01*
X55351503Y-77324800D02*
X55256265Y-77229561D01*
X55256265Y-77229561D02*
X55208646Y-77039085D01*
X55208646Y-77039085D02*
X55208646Y-76705752D01*
X55208646Y-76705752D02*
X55256265Y-76515276D01*
X55256265Y-76515276D02*
X55351503Y-76420038D01*
X55351503Y-76420038D02*
X55446741Y-76372419D01*
X56875312Y-77372419D02*
X56541979Y-76896228D01*
X56303884Y-77372419D02*
X56303884Y-76372419D01*
X56303884Y-76372419D02*
X56684836Y-76372419D01*
X56684836Y-76372419D02*
X56780074Y-76420038D01*
X56780074Y-76420038D02*
X56827693Y-76467657D01*
X56827693Y-76467657D02*
X56875312Y-76562895D01*
X56875312Y-76562895D02*
X56875312Y-76705752D01*
X56875312Y-76705752D02*
X56827693Y-76800990D01*
X56827693Y-76800990D02*
X56780074Y-76848609D01*
X56780074Y-76848609D02*
X56684836Y-76896228D01*
X56684836Y-76896228D02*
X56303884Y-76896228D01*
X58018170Y-76467657D02*
X58065789Y-76420038D01*
X58065789Y-76420038D02*
X58161027Y-76372419D01*
X58161027Y-76372419D02*
X58399122Y-76372419D01*
X58399122Y-76372419D02*
X58494360Y-76420038D01*
X58494360Y-76420038D02*
X58541979Y-76467657D01*
X58541979Y-76467657D02*
X58589598Y-76562895D01*
X58589598Y-76562895D02*
X58589598Y-76658133D01*
X58589598Y-76658133D02*
X58541979Y-76800990D01*
X58541979Y-76800990D02*
X57970551Y-77372419D01*
X57970551Y-77372419D02*
X58589598Y-77372419D01*
X91224434Y-50872419D02*
X90653006Y-50872419D01*
X90938720Y-50872419D02*
X90938720Y-49872419D01*
X90938720Y-49872419D02*
X90843482Y-50015276D01*
X90843482Y-50015276D02*
X90748244Y-50110514D01*
X90748244Y-50110514D02*
X90653006Y-50158133D01*
X91605387Y-49967657D02*
X91653006Y-49920038D01*
X91653006Y-49920038D02*
X91748244Y-49872419D01*
X91748244Y-49872419D02*
X91986339Y-49872419D01*
X91986339Y-49872419D02*
X92081577Y-49920038D01*
X92081577Y-49920038D02*
X92129196Y-49967657D01*
X92129196Y-49967657D02*
X92176815Y-50062895D01*
X92176815Y-50062895D02*
X92176815Y-50158133D01*
X92176815Y-50158133D02*
X92129196Y-50300990D01*
X92129196Y-50300990D02*
X91557768Y-50872419D01*
X91557768Y-50872419D02*
X92176815Y-50872419D01*
X92462530Y-49872419D02*
X92795863Y-50872419D01*
X92795863Y-50872419D02*
X93129196Y-49872419D01*
X94557768Y-50348609D02*
X94700625Y-50396228D01*
X94700625Y-50396228D02*
X94748244Y-50443847D01*
X94748244Y-50443847D02*
X94795863Y-50539085D01*
X94795863Y-50539085D02*
X94795863Y-50681942D01*
X94795863Y-50681942D02*
X94748244Y-50777180D01*
X94748244Y-50777180D02*
X94700625Y-50824800D01*
X94700625Y-50824800D02*
X94605387Y-50872419D01*
X94605387Y-50872419D02*
X94224435Y-50872419D01*
X94224435Y-50872419D02*
X94224435Y-49872419D01*
X94224435Y-49872419D02*
X94557768Y-49872419D01*
X94557768Y-49872419D02*
X94653006Y-49920038D01*
X94653006Y-49920038D02*
X94700625Y-49967657D01*
X94700625Y-49967657D02*
X94748244Y-50062895D01*
X94748244Y-50062895D02*
X94748244Y-50158133D01*
X94748244Y-50158133D02*
X94700625Y-50253371D01*
X94700625Y-50253371D02*
X94653006Y-50300990D01*
X94653006Y-50300990D02*
X94557768Y-50348609D01*
X94557768Y-50348609D02*
X94224435Y-50348609D01*
X95176816Y-50586704D02*
X95653006Y-50586704D01*
X95081578Y-50872419D02*
X95414911Y-49872419D01*
X95414911Y-49872419D02*
X95748244Y-50872419D01*
X95938721Y-49872419D02*
X96510149Y-49872419D01*
X96224435Y-50872419D02*
X96224435Y-49872419D01*
X96700626Y-49872419D02*
X97272054Y-49872419D01*
X96986340Y-50872419D02*
X96986340Y-49872419D01*
X98367293Y-50872419D02*
X98367293Y-49872419D01*
X98843483Y-50872419D02*
X98843483Y-49872419D01*
X98843483Y-49872419D02*
X99414911Y-50872419D01*
X99414911Y-50872419D02*
X99414911Y-49872419D01*
X150661027Y-137872419D02*
X150994360Y-138872419D01*
X150994360Y-138872419D02*
X151327693Y-137872419D01*
X151851503Y-137872419D02*
X152041979Y-137872419D01*
X152041979Y-137872419D02*
X152137217Y-137920038D01*
X152137217Y-137920038D02*
X152232455Y-138015276D01*
X152232455Y-138015276D02*
X152280074Y-138205752D01*
X152280074Y-138205752D02*
X152280074Y-138539085D01*
X152280074Y-138539085D02*
X152232455Y-138729561D01*
X152232455Y-138729561D02*
X152137217Y-138824800D01*
X152137217Y-138824800D02*
X152041979Y-138872419D01*
X152041979Y-138872419D02*
X151851503Y-138872419D01*
X151851503Y-138872419D02*
X151756265Y-138824800D01*
X151756265Y-138824800D02*
X151661027Y-138729561D01*
X151661027Y-138729561D02*
X151613408Y-138539085D01*
X151613408Y-138539085D02*
X151613408Y-138205752D01*
X151613408Y-138205752D02*
X151661027Y-138015276D01*
X151661027Y-138015276D02*
X151756265Y-137920038D01*
X151756265Y-137920038D02*
X151851503Y-137872419D01*
X152708646Y-137872419D02*
X152708646Y-138681942D01*
X152708646Y-138681942D02*
X152756265Y-138777180D01*
X152756265Y-138777180D02*
X152803884Y-138824800D01*
X152803884Y-138824800D02*
X152899122Y-138872419D01*
X152899122Y-138872419D02*
X153089598Y-138872419D01*
X153089598Y-138872419D02*
X153184836Y-138824800D01*
X153184836Y-138824800D02*
X153232455Y-138777180D01*
X153232455Y-138777180D02*
X153280074Y-138681942D01*
X153280074Y-138681942D02*
X153280074Y-137872419D01*
X153613408Y-137872419D02*
X154184836Y-137872419D01*
X153899122Y-138872419D02*
X153899122Y-137872419D01*
X154518170Y-138491466D02*
X155280075Y-138491466D01*
X154899122Y-138872419D02*
X154899122Y-138110514D01*
X120661027Y-80372419D02*
X120994360Y-81372419D01*
X120994360Y-81372419D02*
X121327693Y-80372419D01*
X121661027Y-81372419D02*
X121661027Y-80372419D01*
X122137217Y-81372419D02*
X122137217Y-80372419D01*
X122137217Y-80372419D02*
X122708645Y-81372419D01*
X122708645Y-81372419D02*
X122708645Y-80372419D01*
X123184836Y-80991466D02*
X123946741Y-80991466D01*
X123565788Y-81372419D02*
X123565788Y-80610514D01*
X150661027Y-52872419D02*
X150994360Y-53872419D01*
X150994360Y-53872419D02*
X151327693Y-52872419D01*
X151851503Y-52872419D02*
X152041979Y-52872419D01*
X152041979Y-52872419D02*
X152137217Y-52920038D01*
X152137217Y-52920038D02*
X152232455Y-53015276D01*
X152232455Y-53015276D02*
X152280074Y-53205752D01*
X152280074Y-53205752D02*
X152280074Y-53539085D01*
X152280074Y-53539085D02*
X152232455Y-53729561D01*
X152232455Y-53729561D02*
X152137217Y-53824800D01*
X152137217Y-53824800D02*
X152041979Y-53872419D01*
X152041979Y-53872419D02*
X151851503Y-53872419D01*
X151851503Y-53872419D02*
X151756265Y-53824800D01*
X151756265Y-53824800D02*
X151661027Y-53729561D01*
X151661027Y-53729561D02*
X151613408Y-53539085D01*
X151613408Y-53539085D02*
X151613408Y-53205752D01*
X151613408Y-53205752D02*
X151661027Y-53015276D01*
X151661027Y-53015276D02*
X151756265Y-52920038D01*
X151756265Y-52920038D02*
X151851503Y-52872419D01*
X152708646Y-52872419D02*
X152708646Y-53681942D01*
X152708646Y-53681942D02*
X152756265Y-53777180D01*
X152756265Y-53777180D02*
X152803884Y-53824800D01*
X152803884Y-53824800D02*
X152899122Y-53872419D01*
X152899122Y-53872419D02*
X153089598Y-53872419D01*
X153089598Y-53872419D02*
X153184836Y-53824800D01*
X153184836Y-53824800D02*
X153232455Y-53777180D01*
X153232455Y-53777180D02*
X153280074Y-53681942D01*
X153280074Y-53681942D02*
X153280074Y-52872419D01*
X153613408Y-52872419D02*
X154184836Y-52872419D01*
X153899122Y-53872419D02*
X153899122Y-52872419D01*
X154518170Y-53491466D02*
X155280075Y-53491466D01*
X154899122Y-53872419D02*
X154899122Y-53110514D01*
X94865163Y-60008533D02*
X94103259Y-60008533D01*
X120327693Y-94920038D02*
X120232455Y-94872419D01*
X120232455Y-94872419D02*
X120089598Y-94872419D01*
X120089598Y-94872419D02*
X119946741Y-94920038D01*
X119946741Y-94920038D02*
X119851503Y-95015276D01*
X119851503Y-95015276D02*
X119803884Y-95110514D01*
X119803884Y-95110514D02*
X119756265Y-95300990D01*
X119756265Y-95300990D02*
X119756265Y-95443847D01*
X119756265Y-95443847D02*
X119803884Y-95634323D01*
X119803884Y-95634323D02*
X119851503Y-95729561D01*
X119851503Y-95729561D02*
X119946741Y-95824800D01*
X119946741Y-95824800D02*
X120089598Y-95872419D01*
X120089598Y-95872419D02*
X120184836Y-95872419D01*
X120184836Y-95872419D02*
X120327693Y-95824800D01*
X120327693Y-95824800D02*
X120375312Y-95777180D01*
X120375312Y-95777180D02*
X120375312Y-95443847D01*
X120375312Y-95443847D02*
X120184836Y-95443847D01*
X120803884Y-95872419D02*
X120803884Y-94872419D01*
X120803884Y-94872419D02*
X121375312Y-95872419D01*
X121375312Y-95872419D02*
X121375312Y-94872419D01*
X121851503Y-95872419D02*
X121851503Y-94872419D01*
X121851503Y-94872419D02*
X122089598Y-94872419D01*
X122089598Y-94872419D02*
X122232455Y-94920038D01*
X122232455Y-94920038D02*
X122327693Y-95015276D01*
X122327693Y-95015276D02*
X122375312Y-95110514D01*
X122375312Y-95110514D02*
X122422931Y-95300990D01*
X122422931Y-95300990D02*
X122422931Y-95443847D01*
X122422931Y-95443847D02*
X122375312Y-95634323D01*
X122375312Y-95634323D02*
X122327693Y-95729561D01*
X122327693Y-95729561D02*
X122232455Y-95824800D01*
X122232455Y-95824800D02*
X122089598Y-95872419D01*
X122089598Y-95872419D02*
X121851503Y-95872419D01*
X52303884Y-124372419D02*
X52303884Y-123372419D01*
X52303884Y-123372419D02*
X52637217Y-124086704D01*
X52637217Y-124086704D02*
X52970550Y-123372419D01*
X52970550Y-123372419D02*
X52970550Y-124372419D01*
X53637217Y-123372419D02*
X53827693Y-123372419D01*
X53827693Y-123372419D02*
X53922931Y-123420038D01*
X53922931Y-123420038D02*
X54018169Y-123515276D01*
X54018169Y-123515276D02*
X54065788Y-123705752D01*
X54065788Y-123705752D02*
X54065788Y-124039085D01*
X54065788Y-124039085D02*
X54018169Y-124229561D01*
X54018169Y-124229561D02*
X53922931Y-124324800D01*
X53922931Y-124324800D02*
X53827693Y-124372419D01*
X53827693Y-124372419D02*
X53637217Y-124372419D01*
X53637217Y-124372419D02*
X53541979Y-124324800D01*
X53541979Y-124324800D02*
X53446741Y-124229561D01*
X53446741Y-124229561D02*
X53399122Y-124039085D01*
X53399122Y-124039085D02*
X53399122Y-123705752D01*
X53399122Y-123705752D02*
X53446741Y-123515276D01*
X53446741Y-123515276D02*
X53541979Y-123420038D01*
X53541979Y-123420038D02*
X53637217Y-123372419D01*
X54351503Y-123372419D02*
X54922931Y-123372419D01*
X54637217Y-124372419D02*
X54637217Y-123372419D01*
X55446741Y-123372419D02*
X55637217Y-123372419D01*
X55637217Y-123372419D02*
X55732455Y-123420038D01*
X55732455Y-123420038D02*
X55827693Y-123515276D01*
X55827693Y-123515276D02*
X55875312Y-123705752D01*
X55875312Y-123705752D02*
X55875312Y-124039085D01*
X55875312Y-124039085D02*
X55827693Y-124229561D01*
X55827693Y-124229561D02*
X55732455Y-124324800D01*
X55732455Y-124324800D02*
X55637217Y-124372419D01*
X55637217Y-124372419D02*
X55446741Y-124372419D01*
X55446741Y-124372419D02*
X55351503Y-124324800D01*
X55351503Y-124324800D02*
X55256265Y-124229561D01*
X55256265Y-124229561D02*
X55208646Y-124039085D01*
X55208646Y-124039085D02*
X55208646Y-123705752D01*
X55208646Y-123705752D02*
X55256265Y-123515276D01*
X55256265Y-123515276D02*
X55351503Y-123420038D01*
X55351503Y-123420038D02*
X55446741Y-123372419D01*
X56875312Y-124372419D02*
X56541979Y-123896228D01*
X56303884Y-124372419D02*
X56303884Y-123372419D01*
X56303884Y-123372419D02*
X56684836Y-123372419D01*
X56684836Y-123372419D02*
X56780074Y-123420038D01*
X56780074Y-123420038D02*
X56827693Y-123467657D01*
X56827693Y-123467657D02*
X56875312Y-123562895D01*
X56875312Y-123562895D02*
X56875312Y-123705752D01*
X56875312Y-123705752D02*
X56827693Y-123800990D01*
X56827693Y-123800990D02*
X56780074Y-123848609D01*
X56780074Y-123848609D02*
X56684836Y-123896228D01*
X56684836Y-123896228D02*
X56303884Y-123896228D01*
X58494360Y-123705752D02*
X58494360Y-124372419D01*
X58256265Y-123324800D02*
X58018170Y-124039085D01*
X58018170Y-124039085D02*
X58637217Y-124039085D01*
X120161027Y-137872419D02*
X120494360Y-138872419D01*
X120494360Y-138872419D02*
X120827693Y-137872419D01*
X121161027Y-138872419D02*
X121161027Y-137872419D01*
X121637217Y-138872419D02*
X121637217Y-137872419D01*
X121637217Y-137872419D02*
X122208645Y-138872419D01*
X122208645Y-138872419D02*
X122208645Y-137872419D01*
X122684836Y-138491466D02*
X123446741Y-138491466D01*
X123065788Y-138872419D02*
X123065788Y-138110514D01*
X52303884Y-52872419D02*
X52303884Y-51872419D01*
X52303884Y-51872419D02*
X52637217Y-52586704D01*
X52637217Y-52586704D02*
X52970550Y-51872419D01*
X52970550Y-51872419D02*
X52970550Y-52872419D01*
X53637217Y-51872419D02*
X53827693Y-51872419D01*
X53827693Y-51872419D02*
X53922931Y-51920038D01*
X53922931Y-51920038D02*
X54018169Y-52015276D01*
X54018169Y-52015276D02*
X54065788Y-52205752D01*
X54065788Y-52205752D02*
X54065788Y-52539085D01*
X54065788Y-52539085D02*
X54018169Y-52729561D01*
X54018169Y-52729561D02*
X53922931Y-52824800D01*
X53922931Y-52824800D02*
X53827693Y-52872419D01*
X53827693Y-52872419D02*
X53637217Y-52872419D01*
X53637217Y-52872419D02*
X53541979Y-52824800D01*
X53541979Y-52824800D02*
X53446741Y-52729561D01*
X53446741Y-52729561D02*
X53399122Y-52539085D01*
X53399122Y-52539085D02*
X53399122Y-52205752D01*
X53399122Y-52205752D02*
X53446741Y-52015276D01*
X53446741Y-52015276D02*
X53541979Y-51920038D01*
X53541979Y-51920038D02*
X53637217Y-51872419D01*
X54351503Y-51872419D02*
X54922931Y-51872419D01*
X54637217Y-52872419D02*
X54637217Y-51872419D01*
X55446741Y-51872419D02*
X55637217Y-51872419D01*
X55637217Y-51872419D02*
X55732455Y-51920038D01*
X55732455Y-51920038D02*
X55827693Y-52015276D01*
X55827693Y-52015276D02*
X55875312Y-52205752D01*
X55875312Y-52205752D02*
X55875312Y-52539085D01*
X55875312Y-52539085D02*
X55827693Y-52729561D01*
X55827693Y-52729561D02*
X55732455Y-52824800D01*
X55732455Y-52824800D02*
X55637217Y-52872419D01*
X55637217Y-52872419D02*
X55446741Y-52872419D01*
X55446741Y-52872419D02*
X55351503Y-52824800D01*
X55351503Y-52824800D02*
X55256265Y-52729561D01*
X55256265Y-52729561D02*
X55208646Y-52539085D01*
X55208646Y-52539085D02*
X55208646Y-52205752D01*
X55208646Y-52205752D02*
X55256265Y-52015276D01*
X55256265Y-52015276D02*
X55351503Y-51920038D01*
X55351503Y-51920038D02*
X55446741Y-51872419D01*
X56875312Y-52872419D02*
X56541979Y-52396228D01*
X56303884Y-52872419D02*
X56303884Y-51872419D01*
X56303884Y-51872419D02*
X56684836Y-51872419D01*
X56684836Y-51872419D02*
X56780074Y-51920038D01*
X56780074Y-51920038D02*
X56827693Y-51967657D01*
X56827693Y-51967657D02*
X56875312Y-52062895D01*
X56875312Y-52062895D02*
X56875312Y-52205752D01*
X56875312Y-52205752D02*
X56827693Y-52300990D01*
X56827693Y-52300990D02*
X56780074Y-52348609D01*
X56780074Y-52348609D02*
X56684836Y-52396228D01*
X56684836Y-52396228D02*
X56303884Y-52396228D01*
X58589598Y-52872419D02*
X58018170Y-52872419D01*
X58303884Y-52872419D02*
X58303884Y-51872419D01*
X58303884Y-51872419D02*
X58208646Y-52015276D01*
X58208646Y-52015276D02*
X58113408Y-52110514D01*
X58113408Y-52110514D02*
X58018170Y-52158133D01*
D13*
X94136666Y-63102319D02*
X94136666Y-63816604D01*
X94136666Y-63816604D02*
X94089047Y-63959461D01*
X94089047Y-63959461D02*
X93993809Y-64054700D01*
X93993809Y-64054700D02*
X93850952Y-64102319D01*
X93850952Y-64102319D02*
X93755714Y-64102319D01*
X95136666Y-64102319D02*
X94565238Y-64102319D01*
X94850952Y-64102319D02*
X94850952Y-63102319D01*
X94850952Y-63102319D02*
X94755714Y-63245176D01*
X94755714Y-63245176D02*
X94660476Y-63340414D01*
X94660476Y-63340414D02*
X94565238Y-63388033D01*
X92804819Y-155184523D02*
X93519104Y-155184523D01*
X93519104Y-155184523D02*
X93661961Y-155232142D01*
X93661961Y-155232142D02*
X93757200Y-155327380D01*
X93757200Y-155327380D02*
X93804819Y-155470237D01*
X93804819Y-155470237D02*
X93804819Y-155565475D01*
X93804819Y-154184523D02*
X93804819Y-154755951D01*
X93804819Y-154470237D02*
X92804819Y-154470237D01*
X92804819Y-154470237D02*
X92947676Y-154565475D01*
X92947676Y-154565475D02*
X93042914Y-154660713D01*
X93042914Y-154660713D02*
X93090533Y-154755951D01*
X92804819Y-153565475D02*
X92804819Y-153470237D01*
X92804819Y-153470237D02*
X92852438Y-153374999D01*
X92852438Y-153374999D02*
X92900057Y-153327380D01*
X92900057Y-153327380D02*
X92995295Y-153279761D01*
X92995295Y-153279761D02*
X93185771Y-153232142D01*
X93185771Y-153232142D02*
X93423866Y-153232142D01*
X93423866Y-153232142D02*
X93614342Y-153279761D01*
X93614342Y-153279761D02*
X93709580Y-153327380D01*
X93709580Y-153327380D02*
X93757200Y-153374999D01*
X93757200Y-153374999D02*
X93804819Y-153470237D01*
X93804819Y-153470237D02*
X93804819Y-153565475D01*
X93804819Y-153565475D02*
X93757200Y-153660713D01*
X93757200Y-153660713D02*
X93709580Y-153708332D01*
X93709580Y-153708332D02*
X93614342Y-153755951D01*
X93614342Y-153755951D02*
X93423866Y-153803570D01*
X93423866Y-153803570D02*
X93185771Y-153803570D01*
X93185771Y-153803570D02*
X92995295Y-153755951D01*
X92995295Y-153755951D02*
X92900057Y-153708332D01*
X92900057Y-153708332D02*
X92852438Y-153660713D01*
X92852438Y-153660713D02*
X92804819Y-153565475D01*
X214166666Y-138954819D02*
X213833333Y-138478628D01*
X213595238Y-138954819D02*
X213595238Y-137954819D01*
X213595238Y-137954819D02*
X213976190Y-137954819D01*
X213976190Y-137954819D02*
X214071428Y-138002438D01*
X214071428Y-138002438D02*
X214119047Y-138050057D01*
X214119047Y-138050057D02*
X214166666Y-138145295D01*
X214166666Y-138145295D02*
X214166666Y-138288152D01*
X214166666Y-138288152D02*
X214119047Y-138383390D01*
X214119047Y-138383390D02*
X214071428Y-138431009D01*
X214071428Y-138431009D02*
X213976190Y-138478628D01*
X213976190Y-138478628D02*
X213595238Y-138478628D01*
X214595238Y-138431009D02*
X214928571Y-138431009D01*
X215071428Y-138954819D02*
X214595238Y-138954819D01*
X214595238Y-138954819D02*
X214595238Y-137954819D01*
X214595238Y-137954819D02*
X215071428Y-137954819D01*
X215833333Y-138431009D02*
X215500000Y-138431009D01*
X215500000Y-138954819D02*
X215500000Y-137954819D01*
X215500000Y-137954819D02*
X215976190Y-137954819D01*
X216500000Y-137954819D02*
X216500000Y-138192914D01*
X216261905Y-138097676D02*
X216500000Y-138192914D01*
X216500000Y-138192914D02*
X216738095Y-138097676D01*
X216357143Y-138383390D02*
X216500000Y-138192914D01*
X216500000Y-138192914D02*
X216642857Y-138383390D01*
X217261905Y-137954819D02*
X217261905Y-138192914D01*
X217023810Y-138097676D02*
X217261905Y-138192914D01*
X217261905Y-138192914D02*
X217500000Y-138097676D01*
X217119048Y-138383390D02*
X217261905Y-138192914D01*
X217261905Y-138192914D02*
X217404762Y-138383390D01*
X226190476Y-44954819D02*
X226190476Y-45669104D01*
X226190476Y-45669104D02*
X226142857Y-45811961D01*
X226142857Y-45811961D02*
X226047619Y-45907200D01*
X226047619Y-45907200D02*
X225904762Y-45954819D01*
X225904762Y-45954819D02*
X225809524Y-45954819D01*
X227190476Y-45954819D02*
X226619048Y-45954819D01*
X226904762Y-45954819D02*
X226904762Y-44954819D01*
X226904762Y-44954819D02*
X226809524Y-45097676D01*
X226809524Y-45097676D02*
X226714286Y-45192914D01*
X226714286Y-45192914D02*
X226619048Y-45240533D01*
X228142857Y-45954819D02*
X227571429Y-45954819D01*
X227857143Y-45954819D02*
X227857143Y-44954819D01*
X227857143Y-44954819D02*
X227761905Y-45097676D01*
X227761905Y-45097676D02*
X227666667Y-45192914D01*
X227666667Y-45192914D02*
X227571429Y-45240533D01*
X226190476Y-116954819D02*
X226190476Y-117669104D01*
X226190476Y-117669104D02*
X226142857Y-117811961D01*
X226142857Y-117811961D02*
X226047619Y-117907200D01*
X226047619Y-117907200D02*
X225904762Y-117954819D01*
X225904762Y-117954819D02*
X225809524Y-117954819D01*
X227190476Y-117954819D02*
X226619048Y-117954819D01*
X226904762Y-117954819D02*
X226904762Y-116954819D01*
X226904762Y-116954819D02*
X226809524Y-117097676D01*
X226809524Y-117097676D02*
X226714286Y-117192914D01*
X226714286Y-117192914D02*
X226619048Y-117240533D01*
X228047619Y-117288152D02*
X228047619Y-117954819D01*
X227809524Y-116907200D02*
X227571429Y-117621485D01*
X227571429Y-117621485D02*
X228190476Y-117621485D01*
D10*
X117536666Y-117457419D02*
X117536666Y-118171704D01*
X117536666Y-118171704D02*
X117489047Y-118314561D01*
X117489047Y-118314561D02*
X117393809Y-118409800D01*
X117393809Y-118409800D02*
X117250952Y-118457419D01*
X117250952Y-118457419D02*
X117155714Y-118457419D01*
X118060476Y-118457419D02*
X118250952Y-118457419D01*
X118250952Y-118457419D02*
X118346190Y-118409800D01*
X118346190Y-118409800D02*
X118393809Y-118362180D01*
X118393809Y-118362180D02*
X118489047Y-118219323D01*
X118489047Y-118219323D02*
X118536666Y-118028847D01*
X118536666Y-118028847D02*
X118536666Y-117647895D01*
X118536666Y-117647895D02*
X118489047Y-117552657D01*
X118489047Y-117552657D02*
X118441428Y-117505038D01*
X118441428Y-117505038D02*
X118346190Y-117457419D01*
X118346190Y-117457419D02*
X118155714Y-117457419D01*
X118155714Y-117457419D02*
X118060476Y-117505038D01*
X118060476Y-117505038D02*
X118012857Y-117552657D01*
X118012857Y-117552657D02*
X117965238Y-117647895D01*
X117965238Y-117647895D02*
X117965238Y-117885990D01*
X117965238Y-117885990D02*
X118012857Y-117981228D01*
X118012857Y-117981228D02*
X118060476Y-118028847D01*
X118060476Y-118028847D02*
X118155714Y-118076466D01*
X118155714Y-118076466D02*
X118346190Y-118076466D01*
X118346190Y-118076466D02*
X118441428Y-118028847D01*
X118441428Y-118028847D02*
X118489047Y-117981228D01*
X118489047Y-117981228D02*
X118536666Y-117885990D01*
D13*
X46166666Y-31304819D02*
X45833333Y-30828628D01*
X45595238Y-31304819D02*
X45595238Y-30304819D01*
X45595238Y-30304819D02*
X45976190Y-30304819D01*
X45976190Y-30304819D02*
X46071428Y-30352438D01*
X46071428Y-30352438D02*
X46119047Y-30400057D01*
X46119047Y-30400057D02*
X46166666Y-30495295D01*
X46166666Y-30495295D02*
X46166666Y-30638152D01*
X46166666Y-30638152D02*
X46119047Y-30733390D01*
X46119047Y-30733390D02*
X46071428Y-30781009D01*
X46071428Y-30781009D02*
X45976190Y-30828628D01*
X45976190Y-30828628D02*
X45595238Y-30828628D01*
X46595238Y-30781009D02*
X46928571Y-30781009D01*
X47071428Y-31304819D02*
X46595238Y-31304819D01*
X46595238Y-31304819D02*
X46595238Y-30304819D01*
X46595238Y-30304819D02*
X47071428Y-30304819D01*
X47833333Y-30781009D02*
X47500000Y-30781009D01*
X47500000Y-31304819D02*
X47500000Y-30304819D01*
X47500000Y-30304819D02*
X47976190Y-30304819D01*
X48500000Y-30304819D02*
X48500000Y-30542914D01*
X48261905Y-30447676D02*
X48500000Y-30542914D01*
X48500000Y-30542914D02*
X48738095Y-30447676D01*
X48357143Y-30733390D02*
X48500000Y-30542914D01*
X48500000Y-30542914D02*
X48642857Y-30733390D01*
X49261905Y-30304819D02*
X49261905Y-30542914D01*
X49023810Y-30447676D02*
X49261905Y-30542914D01*
X49261905Y-30542914D02*
X49500000Y-30447676D01*
X49119048Y-30733390D02*
X49261905Y-30542914D01*
X49261905Y-30542914D02*
X49404762Y-30733390D01*
X214166666Y-31304819D02*
X213833333Y-30828628D01*
X213595238Y-31304819D02*
X213595238Y-30304819D01*
X213595238Y-30304819D02*
X213976190Y-30304819D01*
X213976190Y-30304819D02*
X214071428Y-30352438D01*
X214071428Y-30352438D02*
X214119047Y-30400057D01*
X214119047Y-30400057D02*
X214166666Y-30495295D01*
X214166666Y-30495295D02*
X214166666Y-30638152D01*
X214166666Y-30638152D02*
X214119047Y-30733390D01*
X214119047Y-30733390D02*
X214071428Y-30781009D01*
X214071428Y-30781009D02*
X213976190Y-30828628D01*
X213976190Y-30828628D02*
X213595238Y-30828628D01*
X214595238Y-30781009D02*
X214928571Y-30781009D01*
X215071428Y-31304819D02*
X214595238Y-31304819D01*
X214595238Y-31304819D02*
X214595238Y-30304819D01*
X214595238Y-30304819D02*
X215071428Y-30304819D01*
X215833333Y-30781009D02*
X215500000Y-30781009D01*
X215500000Y-31304819D02*
X215500000Y-30304819D01*
X215500000Y-30304819D02*
X215976190Y-30304819D01*
X216500000Y-30304819D02*
X216500000Y-30542914D01*
X216261905Y-30447676D02*
X216500000Y-30542914D01*
X216500000Y-30542914D02*
X216738095Y-30447676D01*
X216357143Y-30733390D02*
X216500000Y-30542914D01*
X216500000Y-30542914D02*
X216642857Y-30733390D01*
X217261905Y-30304819D02*
X217261905Y-30542914D01*
X217023810Y-30447676D02*
X217261905Y-30542914D01*
X217261905Y-30542914D02*
X217500000Y-30447676D01*
X217119048Y-30733390D02*
X217261905Y-30542914D01*
X217261905Y-30542914D02*
X217404762Y-30733390D01*
X226190476Y-92954819D02*
X226190476Y-93669104D01*
X226190476Y-93669104D02*
X226142857Y-93811961D01*
X226142857Y-93811961D02*
X226047619Y-93907200D01*
X226047619Y-93907200D02*
X225904762Y-93954819D01*
X225904762Y-93954819D02*
X225809524Y-93954819D01*
X227190476Y-93954819D02*
X226619048Y-93954819D01*
X226904762Y-93954819D02*
X226904762Y-92954819D01*
X226904762Y-92954819D02*
X226809524Y-93097676D01*
X226809524Y-93097676D02*
X226714286Y-93192914D01*
X226714286Y-93192914D02*
X226619048Y-93240533D01*
X227523810Y-92954819D02*
X228142857Y-92954819D01*
X228142857Y-92954819D02*
X227809524Y-93335771D01*
X227809524Y-93335771D02*
X227952381Y-93335771D01*
X227952381Y-93335771D02*
X228047619Y-93383390D01*
X228047619Y-93383390D02*
X228095238Y-93431009D01*
X228095238Y-93431009D02*
X228142857Y-93526247D01*
X228142857Y-93526247D02*
X228142857Y-93764342D01*
X228142857Y-93764342D02*
X228095238Y-93859580D01*
X228095238Y-93859580D02*
X228047619Y-93907200D01*
X228047619Y-93907200D02*
X227952381Y-93954819D01*
X227952381Y-93954819D02*
X227666667Y-93954819D01*
X227666667Y-93954819D02*
X227571429Y-93907200D01*
X227571429Y-93907200D02*
X227523810Y-93859580D01*
D10*
X117536666Y-89957419D02*
X117536666Y-90671704D01*
X117536666Y-90671704D02*
X117489047Y-90814561D01*
X117489047Y-90814561D02*
X117393809Y-90909800D01*
X117393809Y-90909800D02*
X117250952Y-90957419D01*
X117250952Y-90957419D02*
X117155714Y-90957419D01*
X118155714Y-90385990D02*
X118060476Y-90338371D01*
X118060476Y-90338371D02*
X118012857Y-90290752D01*
X118012857Y-90290752D02*
X117965238Y-90195514D01*
X117965238Y-90195514D02*
X117965238Y-90147895D01*
X117965238Y-90147895D02*
X118012857Y-90052657D01*
X118012857Y-90052657D02*
X118060476Y-90005038D01*
X118060476Y-90005038D02*
X118155714Y-89957419D01*
X118155714Y-89957419D02*
X118346190Y-89957419D01*
X118346190Y-89957419D02*
X118441428Y-90005038D01*
X118441428Y-90005038D02*
X118489047Y-90052657D01*
X118489047Y-90052657D02*
X118536666Y-90147895D01*
X118536666Y-90147895D02*
X118536666Y-90195514D01*
X118536666Y-90195514D02*
X118489047Y-90290752D01*
X118489047Y-90290752D02*
X118441428Y-90338371D01*
X118441428Y-90338371D02*
X118346190Y-90385990D01*
X118346190Y-90385990D02*
X118155714Y-90385990D01*
X118155714Y-90385990D02*
X118060476Y-90433609D01*
X118060476Y-90433609D02*
X118012857Y-90481228D01*
X118012857Y-90481228D02*
X117965238Y-90576466D01*
X117965238Y-90576466D02*
X117965238Y-90766942D01*
X117965238Y-90766942D02*
X118012857Y-90862180D01*
X118012857Y-90862180D02*
X118060476Y-90909800D01*
X118060476Y-90909800D02*
X118155714Y-90957419D01*
X118155714Y-90957419D02*
X118346190Y-90957419D01*
X118346190Y-90957419D02*
X118441428Y-90909800D01*
X118441428Y-90909800D02*
X118489047Y-90862180D01*
X118489047Y-90862180D02*
X118536666Y-90766942D01*
X118536666Y-90766942D02*
X118536666Y-90576466D01*
X118536666Y-90576466D02*
X118489047Y-90481228D01*
X118489047Y-90481228D02*
X118441428Y-90433609D01*
X118441428Y-90433609D02*
X118346190Y-90385990D01*
D13*
X46799166Y-136489819D02*
X46465833Y-136013628D01*
X46227738Y-136489819D02*
X46227738Y-135489819D01*
X46227738Y-135489819D02*
X46608690Y-135489819D01*
X46608690Y-135489819D02*
X46703928Y-135537438D01*
X46703928Y-135537438D02*
X46751547Y-135585057D01*
X46751547Y-135585057D02*
X46799166Y-135680295D01*
X46799166Y-135680295D02*
X46799166Y-135823152D01*
X46799166Y-135823152D02*
X46751547Y-135918390D01*
X46751547Y-135918390D02*
X46703928Y-135966009D01*
X46703928Y-135966009D02*
X46608690Y-136013628D01*
X46608690Y-136013628D02*
X46227738Y-136013628D01*
X47227738Y-135966009D02*
X47561071Y-135966009D01*
X47703928Y-136489819D02*
X47227738Y-136489819D01*
X47227738Y-136489819D02*
X47227738Y-135489819D01*
X47227738Y-135489819D02*
X47703928Y-135489819D01*
X48465833Y-135966009D02*
X48132500Y-135966009D01*
X48132500Y-136489819D02*
X48132500Y-135489819D01*
X48132500Y-135489819D02*
X48608690Y-135489819D01*
X49132500Y-135489819D02*
X49132500Y-135727914D01*
X48894405Y-135632676D02*
X49132500Y-135727914D01*
X49132500Y-135727914D02*
X49370595Y-135632676D01*
X48989643Y-135918390D02*
X49132500Y-135727914D01*
X49132500Y-135727914D02*
X49275357Y-135918390D01*
X49894405Y-135489819D02*
X49894405Y-135727914D01*
X49656310Y-135632676D02*
X49894405Y-135727914D01*
X49894405Y-135727914D02*
X50132500Y-135632676D01*
X49751548Y-135918390D02*
X49894405Y-135727914D01*
X49894405Y-135727914D02*
X50037262Y-135918390D01*
D10*
X117536666Y-32957419D02*
X117536666Y-33671704D01*
X117536666Y-33671704D02*
X117489047Y-33814561D01*
X117489047Y-33814561D02*
X117393809Y-33909800D01*
X117393809Y-33909800D02*
X117250952Y-33957419D01*
X117250952Y-33957419D02*
X117155714Y-33957419D01*
X118441428Y-32957419D02*
X118250952Y-32957419D01*
X118250952Y-32957419D02*
X118155714Y-33005038D01*
X118155714Y-33005038D02*
X118108095Y-33052657D01*
X118108095Y-33052657D02*
X118012857Y-33195514D01*
X118012857Y-33195514D02*
X117965238Y-33385990D01*
X117965238Y-33385990D02*
X117965238Y-33766942D01*
X117965238Y-33766942D02*
X118012857Y-33862180D01*
X118012857Y-33862180D02*
X118060476Y-33909800D01*
X118060476Y-33909800D02*
X118155714Y-33957419D01*
X118155714Y-33957419D02*
X118346190Y-33957419D01*
X118346190Y-33957419D02*
X118441428Y-33909800D01*
X118441428Y-33909800D02*
X118489047Y-33862180D01*
X118489047Y-33862180D02*
X118536666Y-33766942D01*
X118536666Y-33766942D02*
X118536666Y-33528847D01*
X118536666Y-33528847D02*
X118489047Y-33433609D01*
X118489047Y-33433609D02*
X118441428Y-33385990D01*
X118441428Y-33385990D02*
X118346190Y-33338371D01*
X118346190Y-33338371D02*
X118155714Y-33338371D01*
X118155714Y-33338371D02*
X118060476Y-33385990D01*
X118060476Y-33385990D02*
X118012857Y-33433609D01*
X118012857Y-33433609D02*
X117965238Y-33528847D01*
X117536666Y-60457419D02*
X117536666Y-61171704D01*
X117536666Y-61171704D02*
X117489047Y-61314561D01*
X117489047Y-61314561D02*
X117393809Y-61409800D01*
X117393809Y-61409800D02*
X117250952Y-61457419D01*
X117250952Y-61457419D02*
X117155714Y-61457419D01*
X117917619Y-60457419D02*
X118584285Y-60457419D01*
X118584285Y-60457419D02*
X118155714Y-61457419D01*
D13*
X226690476Y-76454819D02*
X226690476Y-77169104D01*
X226690476Y-77169104D02*
X226642857Y-77311961D01*
X226642857Y-77311961D02*
X226547619Y-77407200D01*
X226547619Y-77407200D02*
X226404762Y-77454819D01*
X226404762Y-77454819D02*
X226309524Y-77454819D01*
X227690476Y-77454819D02*
X227119048Y-77454819D01*
X227404762Y-77454819D02*
X227404762Y-76454819D01*
X227404762Y-76454819D02*
X227309524Y-76597676D01*
X227309524Y-76597676D02*
X227214286Y-76692914D01*
X227214286Y-76692914D02*
X227119048Y-76740533D01*
X228071429Y-76550057D02*
X228119048Y-76502438D01*
X228119048Y-76502438D02*
X228214286Y-76454819D01*
X228214286Y-76454819D02*
X228452381Y-76454819D01*
X228452381Y-76454819D02*
X228547619Y-76502438D01*
X228547619Y-76502438D02*
X228595238Y-76550057D01*
X228595238Y-76550057D02*
X228642857Y-76645295D01*
X228642857Y-76645295D02*
X228642857Y-76740533D01*
X228642857Y-76740533D02*
X228595238Y-76883390D01*
X228595238Y-76883390D02*
X228023810Y-77454819D01*
X228023810Y-77454819D02*
X228642857Y-77454819D01*
D14*
%TO.C,J4*%
X61107500Y-99795000D02*
X71147500Y-99795000D01*
X61107500Y-102155000D02*
X61107500Y-99795000D01*
X61107500Y-110195000D02*
X61107500Y-102755000D01*
X61727500Y-99795000D02*
X61727500Y-110195000D01*
X63227500Y-99795000D02*
X63227500Y-110195000D01*
X68127500Y-99795000D02*
X68127500Y-110195000D01*
X71147500Y-99795000D02*
X71147500Y-110195000D01*
X71147500Y-110195000D02*
X61107500Y-110195000D01*
X61107500Y-102455000D02*
X60497500Y-102895000D01*
X60497500Y-102015000D01*
X61107500Y-102455000D01*
G36*
X61107500Y-102455000D02*
G01*
X60497500Y-102895000D01*
X60497500Y-102015000D01*
X61107500Y-102455000D01*
G37*
%TO.C,J1*%
X89305000Y-51780000D02*
X96745000Y-51780000D01*
X89305000Y-61820000D02*
X89305000Y-51780000D01*
X97345000Y-51780000D02*
X99705000Y-51780000D01*
X99705000Y-51780000D02*
X99705000Y-61820000D01*
X99705000Y-52400000D02*
X89305000Y-52400000D01*
X99705000Y-53900000D02*
X89305000Y-53900000D01*
X99705000Y-58800000D02*
X89305000Y-58800000D01*
X99705000Y-61820000D02*
X89305000Y-61820000D01*
X97045000Y-51780000D02*
X96605000Y-51170000D01*
X97485000Y-51170000D01*
X97045000Y-51780000D01*
G36*
X97045000Y-51780000D02*
G01*
X96605000Y-51170000D01*
X97485000Y-51170000D01*
X97045000Y-51780000D01*
G37*
%TO.C,J10*%
X79640000Y-147860000D02*
X79640000Y-148130000D01*
X81390000Y-142455000D02*
X81390000Y-144075000D01*
X81390000Y-144075000D02*
X80350000Y-144075000D01*
X90110000Y-141975000D02*
X89650000Y-141975000D01*
X90110000Y-141975000D02*
X90110000Y-144075000D01*
X91150000Y-144075000D02*
X90110000Y-144075000D01*
X91860000Y-147860000D02*
X91860000Y-148130000D01*
%TO.C,J11*%
X214600000Y-48640000D02*
X214600000Y-49100000D01*
X214600000Y-48640000D02*
X216700000Y-48640000D01*
X215080000Y-57360000D02*
X216700000Y-57360000D01*
X216700000Y-47600000D02*
X216700000Y-48640000D01*
X216700000Y-57360000D02*
X216700000Y-58400000D01*
X220485000Y-46890000D02*
X220755000Y-46890000D01*
X220485000Y-59110000D02*
X220755000Y-59110000D01*
%TO.C,J2*%
X61107500Y-51795000D02*
X71147500Y-51795000D01*
X61107500Y-54155000D02*
X61107500Y-51795000D01*
X61107500Y-62195000D02*
X61107500Y-54755000D01*
X61727500Y-51795000D02*
X61727500Y-62195000D01*
X63227500Y-51795000D02*
X63227500Y-62195000D01*
X68127500Y-51795000D02*
X68127500Y-62195000D01*
X71147500Y-51795000D02*
X71147500Y-62195000D01*
X71147500Y-62195000D02*
X61107500Y-62195000D01*
X61107500Y-54455000D02*
X60497500Y-54895000D01*
X60497500Y-54015000D01*
X61107500Y-54455000D01*
G36*
X61107500Y-54455000D02*
G01*
X60497500Y-54895000D01*
X60497500Y-54015000D01*
X61107500Y-54455000D01*
G37*
%TO.C,F1*%
X88400000Y-74650000D02*
X88400000Y-101350000D01*
X89370000Y-101350000D02*
X88400000Y-101350000D01*
X89370000Y-106350000D02*
X89370000Y-101350000D01*
X93000000Y-74650000D02*
X88400000Y-74650000D01*
X99630000Y-101350000D02*
X99630000Y-106350000D01*
X99630000Y-101350000D02*
X100600000Y-101350000D01*
X99630000Y-106350000D02*
X89370000Y-106350000D01*
X100600000Y-74650000D02*
X96000000Y-74650000D01*
X100600000Y-101350000D02*
X100600000Y-74650000D01*
%TO.C,J14*%
X214600000Y-120640000D02*
X214600000Y-121100000D01*
X214600000Y-120640000D02*
X216700000Y-120640000D01*
X215080000Y-129360000D02*
X216700000Y-129360000D01*
X216700000Y-119600000D02*
X216700000Y-120640000D01*
X216700000Y-129360000D02*
X216700000Y-130400000D01*
X220485000Y-118890000D02*
X220755000Y-118890000D01*
X220485000Y-131110000D02*
X220755000Y-131110000D01*
%TO.C,J9*%
D10*
X116135000Y-139765000D02*
X159235000Y-139765000D01*
X159235000Y-118965000D01*
X116135000Y-118965000D01*
X116135000Y-139765000D01*
D14*
%TO.C,J3*%
X61107500Y-75795000D02*
X71147500Y-75795000D01*
X61107500Y-78155000D02*
X61107500Y-75795000D01*
X61107500Y-86195000D02*
X61107500Y-78755000D01*
X61727500Y-75795000D02*
X61727500Y-86195000D01*
X63227500Y-75795000D02*
X63227500Y-86195000D01*
X68127500Y-75795000D02*
X68127500Y-86195000D01*
X71147500Y-75795000D02*
X71147500Y-86195000D01*
X71147500Y-86195000D02*
X61107500Y-86195000D01*
X61107500Y-78455000D02*
X60497500Y-78895000D01*
X60497500Y-78015000D01*
X61107500Y-78455000D01*
G36*
X61107500Y-78455000D02*
G01*
X60497500Y-78895000D01*
X60497500Y-78015000D01*
X61107500Y-78455000D01*
G37*
%TO.C,J13*%
X214600000Y-96640000D02*
X214600000Y-97100000D01*
X214600000Y-96640000D02*
X216700000Y-96640000D01*
X215080000Y-105360000D02*
X216700000Y-105360000D01*
X216700000Y-95600000D02*
X216700000Y-96640000D01*
X216700000Y-105360000D02*
X216700000Y-106400000D01*
X220485000Y-94890000D02*
X220755000Y-94890000D01*
X220485000Y-107110000D02*
X220755000Y-107110000D01*
%TO.C,J8*%
D10*
X116135000Y-111931667D02*
X159235000Y-111931667D01*
X159235000Y-91131667D01*
X116135000Y-91131667D01*
X116135000Y-111931667D01*
D14*
%TO.C,J5*%
X61107500Y-123795000D02*
X71147500Y-123795000D01*
X61107500Y-126155000D02*
X61107500Y-123795000D01*
X61107500Y-134195000D02*
X61107500Y-126755000D01*
X61727500Y-123795000D02*
X61727500Y-134195000D01*
X63227500Y-123795000D02*
X63227500Y-134195000D01*
X68127500Y-123795000D02*
X68127500Y-134195000D01*
X71147500Y-123795000D02*
X71147500Y-134195000D01*
X71147500Y-134195000D02*
X61107500Y-134195000D01*
X61107500Y-126455000D02*
X60497500Y-126895000D01*
X60497500Y-126015000D01*
X61107500Y-126455000D01*
G36*
X61107500Y-126455000D02*
G01*
X60497500Y-126895000D01*
X60497500Y-126015000D01*
X61107500Y-126455000D01*
G37*
%TO.C,J6*%
D10*
X116135000Y-54931667D02*
X159235000Y-54931667D01*
X159235000Y-34131667D01*
X116135000Y-34131667D01*
X116135000Y-54931667D01*
%TO.C,J7*%
X116135000Y-82765000D02*
X159235000Y-82765000D01*
X159235000Y-61965000D01*
X116135000Y-61965000D01*
X116135000Y-82765000D01*
D14*
%TO.C,J12*%
X214600000Y-72640000D02*
X214600000Y-73100000D01*
X214600000Y-72640000D02*
X216700000Y-72640000D01*
X215080000Y-81360000D02*
X216700000Y-81360000D01*
X216700000Y-71600000D02*
X216700000Y-72640000D01*
X216700000Y-81360000D02*
X216700000Y-82400000D01*
X220485000Y-70890000D02*
X220755000Y-70890000D01*
X220485000Y-83110000D02*
X220755000Y-83110000D01*
%TD*%
M02*
