%TF.GenerationSoftware,KiCad,Pcbnew,9.0.4*%
%TF.CreationDate,2025-09-17T14:06:31+05:30*%
%TF.ProjectId,Robot_power_board,526f626f-745f-4706-9f77-65725f626f61,rev?*%
%TF.SameCoordinates,Original*%
%TF.FileFunction,Copper,L1,Top*%
%TF.FilePolarity,Positive*%
%FSLAX46Y46*%
G04 Gerber Fmt 4.6, Leading zero omitted, Abs format (unit mm)*
G04 Created by KiCad (PCBNEW 9.0.4) date 2025-09-17 14:06:31*
%MOMM*%
%LPD*%
G01*
G04 APERTURE LIST*
G04 Aperture macros list*
%AMRoundRect*
0 Rectangle with rounded corners*
0 $1 Rounding radius*
0 $2 $3 $4 $5 $6 $7 $8 $9 X,Y pos of 4 corners*
0 Add a 4 corners polygon primitive as box body*
4,1,4,$2,$3,$4,$5,$6,$7,$8,$9,$2,$3,0*
0 Add four circle primitives for the rounded corners*
1,1,$1+$1,$2,$3*
1,1,$1+$1,$4,$5*
1,1,$1+$1,$6,$7*
1,1,$1+$1,$8,$9*
0 Add four rect primitives between the rounded corners*
20,1,$1+$1,$2,$3,$4,$5,0*
20,1,$1+$1,$4,$5,$6,$7,0*
20,1,$1+$1,$6,$7,$8,$9,0*
20,1,$1+$1,$8,$9,$2,$3,0*%
G04 Aperture macros list end*
%TA.AperFunction,ComponentPad*%
%ADD10RoundRect,0.250000X-1.050000X1.050000X-1.050000X-1.050000X1.050000X-1.050000X1.050000X1.050000X0*%
%TD*%
%TA.AperFunction,ComponentPad*%
%ADD11C,2.600000*%
%TD*%
%TA.AperFunction,ComponentPad*%
%ADD12RoundRect,0.250000X1.050000X1.050000X-1.050000X1.050000X-1.050000X-1.050000X1.050000X-1.050000X0*%
%TD*%
%TA.AperFunction,SMDPad,CuDef*%
%ADD13RoundRect,0.300000X-0.300000X0.700000X-0.300000X-0.700000X0.300000X-0.700000X0.300000X0.700000X0*%
%TD*%
%TA.AperFunction,HeatsinkPad*%
%ADD14O,1.300000X3.200000*%
%TD*%
%TA.AperFunction,SMDPad,CuDef*%
%ADD15RoundRect,0.300000X-0.700000X-0.300000X0.700000X-0.300000X0.700000X0.300000X-0.700000X0.300000X0*%
%TD*%
%TA.AperFunction,HeatsinkPad*%
%ADD16O,3.200000X1.300000*%
%TD*%
%TA.AperFunction,ComponentPad*%
%ADD17R,2.500000X2.500000*%
%TD*%
%TA.AperFunction,ComponentPad*%
%ADD18C,2.500000*%
%TD*%
%TA.AperFunction,ComponentPad*%
%ADD19RoundRect,0.300000X-0.700000X-0.700000X0.700000X-0.700000X0.700000X0.700000X-0.700000X0.700000X0*%
%TD*%
%TA.AperFunction,Conductor*%
%ADD20C,2.500000*%
%TD*%
%TA.AperFunction,Conductor*%
%ADD21C,1.000000*%
%TD*%
%TA.AperFunction,Conductor*%
%ADD22C,1.500000*%
%TD*%
G04 APERTURE END LIST*
D10*
%TO.P,J4,1,Pin_1*%
%TO.N,/12v_FUSED*%
X65827500Y-102455000D03*
D11*
%TO.P,J4,2,Pin_2*%
%TO.N,GND*%
X65827500Y-107535000D03*
%TD*%
D12*
%TO.P,J1,1,Pin_1*%
%TO.N,/12v_IN*%
X97045000Y-56500000D03*
D11*
%TO.P,J1,2,Pin_2*%
%TO.N,GND*%
X91965000Y-56500000D03*
%TD*%
D13*
%TO.P,J10,1,VBUS*%
%TO.N,/12v_FUSED*%
X89250000Y-143400000D03*
%TO.P,J10,2,D-*%
%TO.N,unconnected-(J10-D--Pad2)*%
X86750000Y-143400000D03*
%TO.P,J10,3,D+*%
%TO.N,unconnected-(J10-D+-Pad3)*%
X84750000Y-143400000D03*
%TO.P,J10,4,GND*%
%TO.N,GND*%
X82250000Y-143400000D03*
D14*
%TO.P,J10,5,Shield*%
X91600000Y-146000000D03*
X79900000Y-146000000D03*
%TD*%
D15*
%TO.P,J11,1,VBUS*%
%TO.N,/+5v_PI*%
X216025000Y-49500000D03*
%TO.P,J11,2,D-*%
%TO.N,unconnected-(J11-D--Pad2)*%
X216025000Y-52000000D03*
%TO.P,J11,3,D+*%
%TO.N,unconnected-(J11-D+-Pad3)*%
X216025000Y-54000000D03*
%TO.P,J11,4,GND*%
%TO.N,GND*%
X216025000Y-56500000D03*
D16*
%TO.P,J11,5,Shield*%
X218625000Y-47150000D03*
X218625000Y-58850000D03*
%TD*%
D10*
%TO.P,J2,1,Pin_1*%
%TO.N,/12v_FUSED*%
X65827500Y-54455000D03*
D11*
%TO.P,J2,2,Pin_2*%
%TO.N,GND*%
X65827500Y-59535000D03*
%TD*%
D17*
%TO.P,F1,1*%
%TO.N,/12v_IN*%
X94500000Y-75000000D03*
D18*
%TO.P,F1,2*%
%TO.N,/12v_FUSED*%
X94500000Y-85000000D03*
%TD*%
D15*
%TO.P,J14,1,VBUS*%
%TO.N,/+5v_EXTRA_2*%
X216025000Y-121500000D03*
%TO.P,J14,2,D-*%
%TO.N,unconnected-(J14-D--Pad2)*%
X216025000Y-124000000D03*
%TO.P,J14,3,D+*%
%TO.N,unconnected-(J14-D+-Pad3)*%
X216025000Y-126000000D03*
%TO.P,J14,4,GND*%
%TO.N,GND*%
X216025000Y-128500000D03*
D16*
%TO.P,J14,5,Shield*%
X218625000Y-119150000D03*
X218625000Y-130850000D03*
%TD*%
D19*
%TO.P,J9,1,Pin_1*%
%TO.N,/12v_FUSED*%
X117870000Y-138000000D03*
%TO.P,J9,2,Pin_2*%
%TO.N,GND*%
X117870000Y-120730000D03*
%TO.P,J9,3,Pin_3*%
%TO.N,/+5v_EXTRA_2*%
X157500000Y-138000000D03*
%TO.P,J9,4,Pin_4*%
%TO.N,GND*%
X157500000Y-120730000D03*
%TD*%
D10*
%TO.P,J3,1,Pin_1*%
%TO.N,/12v_FUSED*%
X65827500Y-78455000D03*
D11*
%TO.P,J3,2,Pin_2*%
%TO.N,GND*%
X65827500Y-83535000D03*
%TD*%
D15*
%TO.P,J13,1,VBUS*%
%TO.N,/+5v_SCREEN10*%
X216025000Y-97500000D03*
%TO.P,J13,2,D-*%
%TO.N,unconnected-(J13-D--Pad2)*%
X216025000Y-100000000D03*
%TO.P,J13,3,D+*%
%TO.N,unconnected-(J13-D+-Pad3)*%
X216025000Y-102000000D03*
%TO.P,J13,4,GND*%
%TO.N,GND*%
X216025000Y-104500000D03*
D16*
%TO.P,J13,5,Shield*%
X218625000Y-95150000D03*
X218625000Y-106850000D03*
%TD*%
D19*
%TO.P,J8,1,Pin_1*%
%TO.N,/12v_FUSED*%
X117870000Y-110166667D03*
%TO.P,J8,2,Pin_2*%
%TO.N,GND*%
X117870000Y-92896667D03*
%TO.P,J8,3,Pin_3*%
%TO.N,/+5v_SCREEN10*%
X157500000Y-110166667D03*
%TO.P,J8,4,Pin_4*%
%TO.N,GND*%
X157500000Y-92896667D03*
%TD*%
D10*
%TO.P,J5,1,Pin_1*%
%TO.N,/12v_FUSED*%
X65827500Y-126455000D03*
D11*
%TO.P,J5,2,Pin_2*%
%TO.N,GND*%
X65827500Y-131535000D03*
%TD*%
D19*
%TO.P,J6,1,Pin_1*%
%TO.N,/12v_FUSED*%
X117870000Y-53166667D03*
%TO.P,J6,2,Pin_2*%
%TO.N,GND*%
X117870000Y-35896667D03*
%TO.P,J6,3,Pin_3*%
%TO.N,/+5v_PI*%
X157500000Y-53166667D03*
%TO.P,J6,4,Pin_4*%
%TO.N,GND*%
X157500000Y-35896667D03*
%TD*%
%TO.P,J7,1,Pin_1*%
%TO.N,/12v_FUSED*%
X117870000Y-81000000D03*
%TO.P,J7,2,Pin_2*%
%TO.N,GND*%
X117870000Y-63730000D03*
%TO.P,J7,3,Pin_3*%
%TO.N,/+5v_EXTRA_1*%
X157500000Y-81000000D03*
%TO.P,J7,4,Pin_4*%
%TO.N,GND*%
X157500000Y-63730000D03*
%TD*%
D15*
%TO.P,J12,1,VBUS*%
%TO.N,/+5v_EXTRA_1*%
X216025000Y-73500000D03*
%TO.P,J12,2,D-*%
%TO.N,unconnected-(J12-D--Pad2)*%
X216025000Y-76000000D03*
%TO.P,J12,3,D+*%
%TO.N,unconnected-(J12-D+-Pad3)*%
X216025000Y-78000000D03*
%TO.P,J12,4,GND*%
%TO.N,GND*%
X216025000Y-80500000D03*
D16*
%TO.P,J12,5,Shield*%
X218625000Y-71150000D03*
X218625000Y-82850000D03*
%TD*%
D20*
%TO.N,/12v_IN*%
X97045000Y-56500000D02*
X97045000Y-72455000D01*
X97045000Y-72455000D02*
X94500000Y-75000000D01*
%TO.N,/12v_FUSED*%
X82500000Y-117000000D02*
X82500000Y-98500000D01*
D21*
X117870000Y-81000000D02*
X107000000Y-81000000D01*
D20*
X82500000Y-78500000D02*
X82500000Y-62000000D01*
X107000000Y-81000000D02*
X107000000Y-60000000D01*
X82500000Y-98500000D02*
X82500000Y-85000000D01*
D21*
X113833333Y-53166667D02*
X107000000Y-60000000D01*
X112666667Y-110166667D02*
X107000000Y-104500000D01*
D20*
X74955000Y-54455000D02*
X65827500Y-54455000D01*
X82500000Y-117000000D02*
X82500000Y-129000000D01*
X65827500Y-102455000D02*
X78545000Y-102455000D01*
X78545000Y-102455000D02*
X82500000Y-98500000D01*
D21*
X89250000Y-143400000D02*
X89250000Y-140250000D01*
D20*
X65827500Y-126455000D02*
X73045000Y-126455000D01*
X82500000Y-129000000D02*
X91500000Y-138000000D01*
X82455000Y-78455000D02*
X82500000Y-78500000D01*
X82500000Y-85000000D02*
X82500000Y-78500000D01*
D21*
X117870000Y-110166667D02*
X112666667Y-110166667D01*
D20*
X94500000Y-85000000D02*
X107000000Y-85000000D01*
X91500000Y-138000000D02*
X109000000Y-138000000D01*
X107000000Y-85000000D02*
X107000000Y-81000000D01*
X73045000Y-126455000D02*
X82500000Y-117000000D01*
X94500000Y-85000000D02*
X82500000Y-85000000D01*
X107000000Y-85000000D02*
X107000000Y-104500000D01*
D21*
X89250000Y-140250000D02*
X91500000Y-138000000D01*
D20*
X82500000Y-62000000D02*
X74955000Y-54455000D01*
D21*
X117870000Y-53166667D02*
X113833333Y-53166667D01*
X117870000Y-138000000D02*
X109000000Y-138000000D01*
D20*
X65827500Y-78455000D02*
X82455000Y-78455000D01*
%TO.N,GND*%
X65827500Y-107535000D02*
X52035000Y-107535000D01*
D21*
X216025000Y-104500000D02*
X207000000Y-113525000D01*
X218625000Y-130850000D02*
X208000000Y-141475000D01*
D20*
X202000000Y-143000000D02*
X208000000Y-143000000D01*
X65827500Y-59535000D02*
X51535000Y-59535000D01*
X73500000Y-139000000D02*
X76500000Y-139000000D01*
D21*
X218625000Y-82850000D02*
X218625000Y-86375000D01*
D20*
X138000000Y-57500000D02*
X138000000Y-64000000D01*
X47500000Y-47500000D02*
X47500000Y-56000000D01*
D21*
X117870000Y-35896667D02*
X117870000Y-47370000D01*
X117870000Y-92896667D02*
X137896667Y-92896667D01*
X218625000Y-119150000D02*
X205650000Y-119150000D01*
X137730000Y-63730000D02*
X138000000Y-64000000D01*
X157500000Y-92896667D02*
X138103333Y-92896667D01*
D20*
X141500000Y-143000000D02*
X202000000Y-143000000D01*
D21*
X202000000Y-142525000D02*
X202000000Y-143000000D01*
X137896667Y-92896667D02*
X138000000Y-93000000D01*
D20*
X47500000Y-103000000D02*
X52035000Y-107535000D01*
X65827500Y-83535000D02*
X51035000Y-83535000D01*
D21*
X210475000Y-115000000D02*
X208500000Y-115000000D01*
D20*
X51000000Y-59500000D02*
X47500000Y-56000000D01*
X48535000Y-131535000D02*
X47500000Y-130500000D01*
X194000000Y-57500000D02*
X198500000Y-57500000D01*
X138000000Y-47500000D02*
X157500000Y-47500000D01*
D21*
X138103333Y-92896667D02*
X138000000Y-93000000D01*
X216025000Y-128500000D02*
X202000000Y-142525000D01*
X157500000Y-120730000D02*
X138270000Y-120730000D01*
X82250000Y-141750000D02*
X79500000Y-139000000D01*
D20*
X91965000Y-56500000D02*
X82965000Y-47500000D01*
X65827500Y-131535000D02*
X66035000Y-131535000D01*
D21*
X205150000Y-95150000D02*
X197000000Y-87000000D01*
D20*
X138000000Y-139500000D02*
X141500000Y-143000000D01*
D21*
X79900000Y-142400000D02*
X76500000Y-139000000D01*
X137730000Y-120730000D02*
X138000000Y-121000000D01*
D20*
X66035000Y-131535000D02*
X73500000Y-139000000D01*
D21*
X91600000Y-146000000D02*
X131500000Y-146000000D01*
D20*
X138000000Y-139500000D02*
X131500000Y-146000000D01*
D21*
X207650000Y-71150000D02*
X194000000Y-57500000D01*
X216025000Y-80500000D02*
X207000000Y-80500000D01*
D20*
X197000000Y-87000000D02*
X200500000Y-87000000D01*
D21*
X199850000Y-58850000D02*
X198500000Y-57500000D01*
D20*
X51500000Y-59500000D02*
X51000000Y-59500000D01*
X82965000Y-47500000D02*
X47500000Y-47500000D01*
X138000000Y-121000000D02*
X138000000Y-139500000D01*
D21*
X207000000Y-113525000D02*
X207000000Y-115000000D01*
D20*
X47500000Y-130500000D02*
X47500000Y-103000000D01*
X93000000Y-47500000D02*
X118000000Y-47500000D01*
D21*
X157500000Y-47500000D02*
X157850000Y-47150000D01*
X79900000Y-146000000D02*
X79900000Y-142400000D01*
X218625000Y-58850000D02*
X199850000Y-58850000D01*
D20*
X118000000Y-47500000D02*
X138000000Y-47500000D01*
D21*
X199500000Y-56500000D02*
X198500000Y-57500000D01*
X117870000Y-120730000D02*
X137730000Y-120730000D01*
D20*
X138000000Y-64000000D02*
X138000000Y-87000000D01*
X201500000Y-115000000D02*
X207000000Y-115000000D01*
D21*
X138270000Y-63730000D02*
X138000000Y-64000000D01*
X205650000Y-119150000D02*
X201500000Y-115000000D01*
D20*
X138000000Y-87000000D02*
X197000000Y-87000000D01*
D21*
X82250000Y-143400000D02*
X82250000Y-141750000D01*
D20*
X138000000Y-115000000D02*
X201500000Y-115000000D01*
X51535000Y-59535000D02*
X51500000Y-59500000D01*
D21*
X157850000Y-47150000D02*
X218625000Y-47150000D01*
X218625000Y-71150000D02*
X207650000Y-71150000D01*
X218625000Y-86375000D02*
X217500000Y-87500000D01*
D20*
X51035000Y-83535000D02*
X47500000Y-80000000D01*
X47500000Y-80000000D02*
X47500000Y-56000000D01*
X47500000Y-80000000D02*
X47500000Y-103000000D01*
D21*
X138270000Y-120730000D02*
X138000000Y-121000000D01*
D20*
X138000000Y-115000000D02*
X138000000Y-121000000D01*
X65827500Y-131535000D02*
X48535000Y-131535000D01*
D21*
X157500000Y-63730000D02*
X138270000Y-63730000D01*
D20*
X138000000Y-93000000D02*
X138000000Y-115000000D01*
X82965000Y-47500000D02*
X93000000Y-47500000D01*
D21*
X157500000Y-35896667D02*
X157500000Y-47500000D01*
X207000000Y-80500000D02*
X200500000Y-87000000D01*
X208000000Y-141475000D02*
X208000000Y-143000000D01*
X218625000Y-95150000D02*
X205150000Y-95150000D01*
D20*
X76500000Y-139000000D02*
X79500000Y-139000000D01*
D21*
X201000000Y-87500000D02*
X200500000Y-87000000D01*
X117870000Y-63730000D02*
X137730000Y-63730000D01*
X216025000Y-56500000D02*
X199500000Y-56500000D01*
D20*
X138000000Y-47500000D02*
X138000000Y-57500000D01*
X138000000Y-57500000D02*
X194000000Y-57500000D01*
D21*
X217500000Y-87500000D02*
X201000000Y-87500000D01*
X218625000Y-106850000D02*
X210475000Y-115000000D01*
X117870000Y-47370000D02*
X118000000Y-47500000D01*
D20*
X207000000Y-115000000D02*
X208500000Y-115000000D01*
X138000000Y-87000000D02*
X138000000Y-93000000D01*
D22*
%TO.N,/+5v_PI*%
X157500000Y-53166667D02*
X161166667Y-49500000D01*
X161166667Y-49500000D02*
X216025000Y-49500000D01*
%TO.N,/+5v_SCREEN10*%
X170166667Y-97500000D02*
X216025000Y-97500000D01*
X157500000Y-110166667D02*
X170166667Y-97500000D01*
%TO.N,/+5v_EXTRA_1*%
X165000000Y-73500000D02*
X216025000Y-73500000D01*
X157500000Y-81000000D02*
X165000000Y-73500000D01*
%TO.N,/+5v_EXTRA_2*%
X174000000Y-121500000D02*
X216025000Y-121500000D01*
X157500000Y-138000000D02*
X174000000Y-121500000D01*
%TD*%
M02*
